<?xml version="1.0" standalone="no"?>
<!DOCTYPE svg PUBLIC "-//W3C//DTD SVG 20010904//EN"
 "http://www.w3.org/TR/2001/REC-SVG-20010904/DTD/svg10.dtd">
<svg version="1.0" xmlns="http://www.w3.org/2000/svg"
 width="400.000000pt" height="400.000000pt" viewBox="0 0 400.000000 400.000000"
 preserveAspectRatio="xMidYMid meet">
<metadata>
Created by potrace 1.11, written by Peter Selinger 2001-2013
</metadata>
<g transform="translate(0.000000,400.000000) scale(0.100000,-0.100000)"
fill="#000000" stroke="none">
<path d="M3597 3994 c-1 -1 -41 -4 -88 -8 -47 -4 -95 -8 -105 -10 -10 -2 -41
-7 -69 -10 -27 -4 -61 -9 -75 -11 -14 -3 -34 -7 -45 -9 -76 -14 -231 -49 -238
-53 -4 -2 -20 -7 -35 -9 -57 -11 -322 -104 -442 -157 -422 -184 -770 -424
-1110 -766 -370 -371 -634 -767 -849 -1268 -125 -293 -243 -705 -285 -998 -4
-22 -8 -51 -11 -65 -5 -29 -11 -79 -30 -265 -2 -22 -7 -113 -11 -203 l-6 -162
361 0 361 0 1 58 c1 110 12 273 25 367 2 17 6 46 8 65 9 73 50 278 71 362 3
10 7 28 10 40 2 13 21 76 41 140 l38 118 988 0 988 0 0 -574 0 -574 360 0 360
0 0 2000 0 1999 -106 -3 c-58 -1 -106 -3 -107 -4z m-507 -1469 l0 -575 -786 0
c-628 0 -784 3 -776 13 5 6 38 50 73 97 304 407 753 759 1204 943 56 22 266
96 278 96 4 1 7 -258 7 -574z"/>
</g>
</svg>
