<?xml version="1.0" encoding="utf-8"?>
<!-- Generator: Adobe Illustrator 17.0.0, SVG Export Plug-In . SVG Version: 6.00 Build 0)  -->
<!DOCTYPE svg PUBLIC "-//W3C//DTD SVG 1.1//EN" "http://www.w3.org/Graphics/SVG/1.1/DTD/svg11.dtd">
<svg version="1.1" id="Слой_1" xmlns="http://www.w3.org/2000/svg" xmlns:xlink="http://www.w3.org/1999/xlink" x="0px" y="0px"
	 width="762.667px" height="283.667px" viewBox="0 0 762.667 283.667" enable-background="new 0 0 762.667 283.667"
	 xml:space="preserve">
<g>
	<defs>
		<rect id="SVGID_1_" x="-91" y="-240.89" width="595.276" height="841.89"/>
	</defs>
	<clipPath id="SVGID_2_">
		<use xlink:href="#SVGID_1_"  overflow="visible"/>
	</clipPath>
</g>
<g>
	<polygon fill="#2B2E56" points="298.149,220.456 298.133,220.456 297.229,220.942 297.094,220.407 298.229,219.8 298.829,219.8 
		298.829,224.997 298.149,224.997 	"/>
	<g>
		<defs>
			<rect id="SVGID_3_" x="-91" y="-240.89" width="595.276" height="841.89"/>
		</defs>
		<clipPath id="SVGID_4_">
			<use xlink:href="#SVGID_3_"  overflow="visible"/>
		</clipPath>
		<path clip-path="url(#SVGID_4_)" fill="#2B2E56" d="M300.725,224.997v-0.432l0.551-0.536c1.328-1.262,1.935-1.933,1.935-2.717
			c0-0.53-0.248-1.016-1.023-1.016c-0.471,0-0.863,0.24-1.104,0.439l-0.222-0.496c0.351-0.295,0.871-0.527,1.463-0.527
			c1.119,0,1.59,0.767,1.59,1.512c0,0.959-0.696,1.734-1.792,2.789l-0.406,0.384v0.016h2.326v0.584H300.725z"/>
		<path clip-path="url(#SVGID_4_)" fill="#2B2E56" d="M291.121,254.159v-0.433l0.553-0.537c1.326-1.262,1.935-1.933,1.935-2.719
			c0-0.527-0.248-1.013-1.023-1.013c-0.473,0-0.865,0.238-1.104,0.439l-0.224-0.496c0.351-0.297,0.871-0.527,1.463-0.527
			c1.119,0,1.591,0.767,1.591,1.51c0,0.961-0.695,1.736-1.791,2.791l-0.408,0.384v0.017h2.326v0.584H291.121z"/>
		<path clip-path="url(#SVGID_4_)" fill="#2B2E56" d="M298.328,249.553h-1.983l-0.201,1.334c0.121-0.016,0.233-0.022,0.424-0.022
			c0.408,0,0.801,0.079,1.119,0.278c0.408,0.225,0.745,0.68,0.745,1.328c0,1.016-0.807,1.775-1.936,1.775
			c-0.566,0-1.039-0.16-1.295-0.319l0.176-0.536c0.217,0.127,0.64,0.287,1.119,0.287c0.656,0,1.232-0.432,1.224-1.126
			c0-0.673-0.457-1.145-1.488-1.145c-0.302,0-0.535,0.025-0.726,0.048l0.336-2.494h2.486V249.553z"/>
		<path clip-path="url(#SVGID_4_)" fill="none" stroke="#000000" stroke-linecap="round" stroke-linejoin="round" d="M363.277,41.33
			c0,0-0.5,8.89,0.375,11.144c0.877,2.253,3.881,3.882,6.135,4.633c2.254,0.751,9.517,0,11.394,0.375
			c1.879,0.376,10.018,5.885,10.645,5.76c0.625-0.125,8.014-0.501,10.892,0.25c2.881,0.752,8.514,3.632,8.514,3.632 M375.84,202.144
			c0,0-1.747-2.846-1.78-4.324c-0.033-1.477,0.42-5.553,0.42-5.553 M332.638,113.089c0,0,0.098,16.307-0.585,19.334
			c-0.684,3.026-4.2,11.326-6.153,14.353c-1.953,3.027-4.978,7.323-5.662,9.276c-0.684,1.953-1.27,4.687-1.758,5.663
			c-0.488,0.976-3.613,6.542-3.613,9.862s1.855,8.69,1.953,10.252c0.098,1.562,0.488,13.67,1.367,19.723
			c0.879,6.054,2.44,15.33,1.463,20.993c-0.975,5.663-1.658,7.909-4.588,13.182c-2.929,5.272-4.004,5.956-4.199,7.714
			c-0.195,1.757,0.586,3.905,1.562,6.053c0.977,2.148,2.735,5.468,4.688,5.663c1.953,0.196,4.395-3.612,5.955-6.444
			c1.563-2.832,3.906-4.394,4.59-7.128s1.66-5.273,2.344-6.737c0.683-1.465,3.418-4.785,3.222-7.031
			c-0.195-2.246-1.074-4.98-0.976-6.347c0.097-1.366-0.977-5.467-0.684-7.518c0.293-2.05,3.028-13.083,4.199-18.747
			c1.17-5.663,0.879-10.741,0.684-12.596c-0.195-1.855-0.879-5.175,0.098-8.983c0.974-3.808,3.318-4.199,4.88-5.468
			c1.563-1.27,4.663-3.041,6.641-5.077c3.319-3.418,5.858-7.909,5.858-7.909s1.074,5.663,1.855,9.081
			c0.779,3.417,2.244,11.228,2.928,14.06c0.683,2.831,3.222,7.909,3.418,9.861c0.195,1.953,0.195,8.496,0.683,11.23
			c0.489,2.733,1.856,7.909,1.66,9.861c-0.195,1.953-1.953,7.421-1.562,10.838c0.391,3.418,3.807,17.185,3.807,18.455
			c0,1.269-1.073,5.272-1.073,6.444s1.268,3.125,1.268,4.199s-2.246,5.858-0.098,8.006c2.149,2.149,5.371,2.343,6.739,3.808
			c1.367,1.465,4.101,7.324,5.468,8.691c1.368,1.367,5.274,6.639,8.201,4.297c2.93-2.345,4.395-7.422,4.2-8.594
			c-0.196-1.172-4.2-5.564-5.469-7.029c-1.27-1.465-6.15-5.371-6.834-6.738c-0.684-1.367-1.66-3.807-1.172-8.885
			s2.344-14.353,2.539-19.04c0.194-4.687-0.293-10.057-0.293-12.693c0-2.637,2.147-8.203,2.049-12.108
			c-0.098-3.906-0.391-7.031-0.586-9.57c-0.195-2.538,0.586-14.548,0.586-21.969c0-7.421-0.488-20.114-1.27-23.922
			c-0.781-3.808-1.953-6.053-2.148-9.764c-0.195-3.71-0.586-25.093-0.391-27.242c0.196-2.148,3.42-11.229,4.395-13.865
			c0.977-2.636,2.832-11.424,2.832-11.424s10.051,2.742,12.68,2.742c2.631,0,11.896-1.001,13.648-1.252
			c1.754-0.25,11.897,1.627,13.649-2.504c1.753-4.132-0.5-13.398-1.252-18.031s-8.766-28.423-8.766-28.423s-0.625-3.507-1.502-4.258
			c-0.877-0.751-4.506-2.379-5.76-4.007c-1.252-1.627-3.256-3.005-4.133-3.005c-0.875,0-3.255,1.378-4.005,1.503
			c-0.752,0.125-3.381,0.626-3.756,1.127c-0.377,0.501-0.877,4.383-0.627,5.134s1.629,0.751,1.629,0.751s0.125,0.877,0.625,1.252
			c0.502,0.376,1.502,0.125,1.502,0.125s-0.123,1.127,0.752,1.628c0.877,0.501,1.502-0.375,1.502-0.375s0.251,0.375,1.001,0.625
			c0.752,0.251,2.504-0.751,2.504-0.751s1.252,1.878,2.129,2.504c0.877,0.626,2.756,1.127,2.756,1.127s-0.275,15.102,0,18.407
			c0.375,4.508,0.75,10.894,2.127,14.274 M328.049,91.12l2.929,8.788 M344.55,42.885c0,0,0.684,5.468-0.488,9.374
			s-3.904,6.542-7.029,7.128s-11.426,2.734-14.061,3.906c-2.636,1.171-7.714,3.612-8.984,8.006c-1.27,4.394-1.463,7.81-1.756,10.154
			c-0.293,2.344-0.976,12.499-0.976,15.428c0,2.929-1.27,10.057,1.172,12.498c2.439,2.441,7.224,4.394,15.425,4.003
			c8.203-0.391,22.262-1.464,24.313-1.562c2.051-0.098,9.373,2.636,13.767,2.636c4.393,0,5.272-1.757,5.37-2.831
			c0.097-1.075-0.391-1.758-0.391-1.758s1.172-1.172,1.172-1.757c0-0.586-0.879-1.855-0.879-1.855s0.976-1.368,0.976-1.856
			s-0.878-1.269-0.878-1.269s0.195-2.343-1.465-2.636c-1.659-0.293-3.026-0.781-4.686,0.097c-1.66,0.879-4.199-0.195-5.957,0.977
			c-1.758,1.171-2.244,2.344-3.807,2.441c-1.562,0.097-6.347-0.977-9.08-1.27c-2.734-0.293-8.591-1.27-10.545-1.757
			c-1.953-0.488-3.808-1.367-5.859-1.172c-2.051,0.196-5.078,0.879-5.273,3.027c0,0,1.857-5.565,2.636-8.397
			c0.782-2.832,1.172-8.202,1.172-8.202 M353.363,49.734c-4.918,0-6.301-3.304-7.068-4.303c-0.768-0.999-2.844-4.457-3.612-6.301
			c-0.767-1.844-1.152-5.148-1.152-5.148s0,1.076-0.537,1.23c-0.537,0.153-1.076-0.923-1.076-0.923s-0.846-2.535-0.846-4.61
			c0-2.075-0.691-5.379,0.537-5.456c1.231-0.077,1.307,1.153,1.307,1.153s0.154-6.915,0.154-11.372c0-4.457,5.225-8.99,12.908-8.99
			h-0.922c7.684,0,12.909,4.533,12.909,8.99c0,4.457,0.154,11.372,0.154,11.372s0.076-1.23,1.307-1.153
			c1.228,0.077,0.537,3.381,0.537,5.456c0,2.075-0.846,4.61-0.846,4.61s-0.539,1.076-1.076,0.923
			c-0.537-0.154-0.537-1.23-0.537-1.23s-0.385,3.304-1.153,5.148c-0.767,1.844-2.843,5.302-3.611,6.301
			c-0.768,0.999-2.15,4.303-7.068,4.303H353.363z"/>
		<path clip-path="url(#SVGID_4_)" fill="none" stroke="#496999" d="M452.773,78.992c0,3.749-3.041,6.789-6.789,6.789
			c-3.75,0-6.789-3.04-6.789-6.789c0-3.749,3.039-6.789,6.789-6.789C449.732,72.203,452.773,75.243,452.773,78.992z M429.242,78.992
			h10.183 M408,121.107c0,3.749-3.039,6.789-6.789,6.789c-3.749,0-6.79-3.04-6.79-6.789c0-3.75,3.041-6.79,6.79-6.79
			C404.961,114.317,408,117.357,408,121.107z M382.316,121.297h12.02 M360.312,272.365c0,3.748-3.041,6.788-6.789,6.788
			c-3.748,0-6.789-3.04-6.789-6.788c0-3.749,3.041-6.789,6.789-6.789C357.271,265.576,360.312,268.616,360.312,272.365z
			 M353.023,196.94h39.402"/>
		<path clip-path="url(#SVGID_4_)" fill="#2B2E56" d="M398.744,46.735c0-0.743-0.424-1.191-1.073-1.191
			c-0.423,0-0.822,0.256-1.015,0.639c-0.039,0.08-0.07,0.176-0.07,0.304c0.007,0.856,0.406,1.495,1.15,1.495
			C398.336,47.982,398.744,47.478,398.744,46.735 M398.943,43.737c-0.143-0.008-0.328,0.008-0.527,0.04
			c-1.112,0.176-1.688,0.976-1.807,1.839h0.016c0.248-0.336,0.687-0.608,1.263-0.608c0.92,0,1.567,0.672,1.567,1.679
			c0,0.959-0.647,1.839-1.735,1.839c-1.103,0-1.832-0.863-1.832-2.215c0-1.023,0.362-1.831,0.881-2.343
			c0.432-0.424,1.008-0.687,1.662-0.767c0.209-0.032,0.385-0.04,0.512-0.04V43.737z"/>
		<path clip-path="url(#SVGID_4_)" fill="none" stroke="#496999" d="M346.271,73.907c0,3.749-3.039,6.789-6.789,6.789
			c-3.748,0-6.789-3.04-6.789-6.789c0-3.749,3.041-6.79,6.789-6.79C343.232,67.117,346.271,70.158,346.271,73.907z M318.926,73.909
			h14"/>
		<path clip-path="url(#SVGID_4_)" fill="#2B2E56" d="M431.578,30.842c-0.008,0.519,0.39,0.799,0.99,0.959
			c0.449-0.152,0.793-0.472,0.793-0.943c0-0.416-0.248-0.848-0.881-0.848C431.898,30.01,431.578,30.394,431.578,30.842
			 M433.513,33.44c0-0.624-0.441-0.935-1.144-1.135c-0.608,0.176-0.936,0.584-0.936,1.079c-0.023,0.52,0.377,0.984,1.039,0.984
			C433.105,34.368,433.513,33.976,433.513,33.44 M431.738,32.057c-0.584-0.272-0.832-0.72-0.832-1.167
			c0-0.824,0.695-1.384,1.615-1.384c1.008,0,1.52,0.624,1.52,1.28c0,0.439-0.225,0.919-0.863,1.215v0.024
			c0.646,0.256,1.046,0.72,1.046,1.343c0,0.912-0.775,1.511-1.767,1.511c-1.088,0-1.742-0.639-1.742-1.399
			c0-0.655,0.39-1.127,1.031-1.399L431.738,32.057z"/>
		<path clip-path="url(#SVGID_4_)" fill="none" stroke="#496999" d="M439.264,32.159c0,3.749-3.039,6.789-6.789,6.789
			c-3.748,0-6.789-3.04-6.789-6.789c0-3.749,3.041-6.79,6.789-6.79C436.225,25.369,439.264,28.41,439.264,32.159z M415.379,32.161
			h10.184"/>
	</g>
	<polygon fill="#2B2E56" points="448.024,76.438 448.024,76.902 445.76,81.635 445.032,81.635 447.288,77.038 447.288,77.022 
		444.745,77.022 444.745,76.438 	"/>
	<g>
		<defs>
			<rect id="SVGID_5_" x="-91" y="-240.89" width="595.276" height="841.89"/>
		</defs>
		<clipPath id="SVGID_6_">
			<use xlink:href="#SVGID_5_"  overflow="visible"/>
		</clipPath>
		<path clip-path="url(#SVGID_6_)" fill="none" stroke="#496999" d="M404.557,45.854c0,3.749-3.039,6.789-6.789,6.789
			c-3.748,0-6.789-3.04-6.789-6.789c0-3.749,3.041-6.789,6.789-6.789C401.518,39.065,404.557,42.105,404.557,45.854z
			 M397.635,58.551v-6.189"/>
		<path clip-path="url(#SVGID_6_)" fill="#2B2E56" d="M402.442,158.545h-1.982l-0.2,1.335c0.119-0.016,0.231-0.023,0.424-0.023
			c0.406,0,0.799,0.079,1.119,0.279c0.409,0.223,0.744,0.68,0.744,1.327c0,1.016-0.808,1.775-1.935,1.775
			c-0.568,0-1.039-0.16-1.295-0.319l0.176-0.536c0.215,0.128,0.639,0.288,1.119,0.288c0.656,0,1.23-0.432,1.223-1.128
			c0-0.672-0.456-1.144-1.487-1.144c-0.304,0-0.537,0.025-0.728,0.048l0.336-2.494h2.486V158.545z"/>
		<path clip-path="url(#SVGID_6_)" fill="none" stroke="#496999" d="M407.97,137.665c0,3.749-3.039,6.789-6.789,6.789
			c-3.748,0-6.789-3.04-6.789-6.789c0-3.749,3.041-6.789,6.789-6.789C404.931,130.876,407.97,133.916,407.97,137.665z
			 M382.152,137.834h12.184"/>
		<path clip-path="url(#SVGID_6_)" fill="#2B2E56" d="M399.989,122.938c0.199,0.12,0.656,0.32,1.15,0.32
			c0.897,0,1.184-0.567,1.176-1.008c-0.008-0.727-0.664-1.039-1.344-1.039h-0.39v-0.527h0.39c0.512,0,1.161-0.264,1.161-0.88
			c0-0.416-0.264-0.783-0.913-0.783c-0.416,0-0.814,0.184-1.039,0.344l-0.191-0.512c0.279-0.2,0.807-0.4,1.367-0.4
			c1.024,0,1.486,0.608,1.486,1.239c0,0.544-0.326,1-0.958,1.231v0.017c0.64,0.119,1.152,0.6,1.16,1.327
			c0,0.831-0.657,1.559-1.895,1.559c-0.584,0-1.096-0.184-1.351-0.352L399.989,122.938z"/>
		<path clip-path="url(#SVGID_6_)" fill="none" stroke="#496999" d="M407.802,160.336c0,3.749-3.041,6.789-6.789,6.789
			c-3.75,0-6.789-3.04-6.789-6.789c0-3.749,3.039-6.789,6.789-6.789C404.761,153.547,407.802,156.587,407.802,160.336z
			 M385.22,160.505h9.389"/>
		<path clip-path="url(#SVGID_6_)" fill="#2B2E56" d="M401.149,138.374v-1.735c0-0.272,0.008-0.544,0.023-0.816h-0.023
			c-0.16,0.304-0.287,0.528-0.432,0.768l-1.271,1.767v0.016H401.149z M401.149,140.341v-1.423h-2.414v-0.456l2.318-3.318h0.76v3.23
			h0.727v0.544h-0.727v1.423H401.149z"/>
		<circle clip-path="url(#SVGID_6_)" fill="none" stroke="#496999" cx="399.26" cy="196.657" r="6.789"/>
		<path clip-path="url(#SVGID_6_)" fill="#2B2E56" d="M349.769,275.008v-0.432l0.551-0.536c1.328-1.263,1.935-1.934,1.935-2.719
			c0-0.527-0.248-1.014-1.023-1.014c-0.471,0-0.863,0.239-1.104,0.439l-0.222-0.496c0.351-0.296,0.871-0.527,1.463-0.527
			c1.119,0,1.589,0.767,1.589,1.511c0,0.96-0.695,1.735-1.791,2.791l-0.406,0.383v0.016h2.326v0.584H349.769z"/>
		<path clip-path="url(#SVGID_6_)" fill="#2B2E56" d="M354.041,274.208c0.199,0.12,0.656,0.32,1.15,0.32
			c0.897,0,1.184-0.568,1.176-1.008c-0.008-0.727-0.664-1.039-1.344-1.039h-0.39v-0.528h0.39c0.512,0,1.161-0.264,1.161-0.879
			c0-0.416-0.264-0.784-0.913-0.784c-0.414,0-0.814,0.184-1.039,0.344l-0.191-0.512c0.279-0.199,0.807-0.399,1.367-0.399
			c1.024,0,1.487,0.607,1.487,1.239c0,0.544-0.327,0.999-0.959,1.231v0.016c0.64,0.12,1.152,0.6,1.16,1.327
			c0,0.832-0.657,1.56-1.895,1.56c-0.584,0-1.096-0.184-1.351-0.352L354.041,274.208z"/>
		<path clip-path="url(#SVGID_6_)" fill="none" stroke="#496999" d="M301.632,251.575c0,3.749-3.041,6.79-6.789,6.79
			c-3.75,0-6.789-3.041-6.789-6.79s3.039-6.789,6.789-6.789C298.591,244.786,301.632,247.826,301.632,251.575z M301.193,251.599
			h10.184"/>
		<path clip-path="url(#SVGID_6_)" fill="#2B2E56" d="M395.599,199.191v-0.432l0.553-0.537c1.326-1.262,1.935-1.934,1.935-2.718
			c0-0.527-0.248-1.015-1.023-1.015c-0.473,0-0.865,0.24-1.104,0.44l-0.224-0.496c0.351-0.296,0.871-0.528,1.463-0.528
			c1.119,0,1.591,0.768,1.591,1.512c0,0.959-0.695,1.734-1.791,2.79l-0.408,0.384v0.016h2.326v0.584H395.599z"/>
		<path clip-path="url(#SVGID_6_)" fill="#2B2E56" d="M401.879,197.224v-1.736c0-0.271,0.008-0.543,0.023-0.815h-0.023
			c-0.16,0.304-0.287,0.528-0.432,0.768l-1.271,1.767v0.016H401.879z M401.879,199.191v-1.424h-2.414v-0.455l2.318-3.319h0.76v3.231
			h0.727v0.543h-0.727v1.424H401.879z"/>
		<path clip-path="url(#SVGID_6_)" fill="none" stroke="#496999" d="M307.328,222.307c0,3.749-3.039,6.789-6.789,6.789
			c-3.748,0-6.79-3.04-6.79-6.789c0-3.749,3.042-6.789,6.79-6.789C304.289,215.518,307.328,218.558,307.328,222.307z
			 M307.312,222.41h10.184"/>
	</g>
	<polygon fill="#2B2E56" points="294.685,161.785 294.669,161.785 293.765,162.272 293.63,161.737 294.765,161.129 295.365,161.129 
		295.365,166.326 294.685,166.326 	"/>
	<polygon fill="#2B2E56" points="298.789,161.785 298.773,161.785 297.869,162.272 297.734,161.737 298.869,161.129 
		299.469,161.129 299.469,166.326 298.789,166.326 	"/>
	<g>
		<defs>
			<rect id="SVGID_7_" x="-91" y="-240.89" width="595.276" height="841.89"/>
		</defs>
		<clipPath id="SVGID_8_">
			<use xlink:href="#SVGID_7_"  overflow="visible"/>
		</clipPath>
		<path clip-path="url(#SVGID_8_)" fill="none" stroke="#496999" d="M303.529,163.728c0,3.749-3.039,6.79-6.789,6.79
			c-3.748,0-6.789-3.041-6.789-6.79c0-3.749,3.041-6.789,6.789-6.789C300.49,156.939,303.529,159.979,303.529,163.728z
			 M303.199,163.831h10.184"/>
	</g>
	<polygon fill="#2B2E56" points="326.811,41.864 326.795,41.864 325.893,42.352 325.756,41.816 326.891,41.208 327.491,41.208 
		327.491,46.406 326.811,46.406 	"/>
	<g>
		<defs>
			<rect id="SVGID_9_" x="-91" y="-240.89" width="595.276" height="841.89"/>
		</defs>
		<clipPath id="SVGID_10_">
			<use xlink:href="#SVGID_9_"  overflow="visible"/>
		</clipPath>
		<path clip-path="url(#SVGID_10_)" fill="#2B2E56" d="M330.028,43.832c0,1.351,0.416,2.118,1.055,2.118
			c0.712,0,1.056-0.839,1.056-2.166c0-1.279-0.32-2.119-1.056-2.119C330.475,41.665,330.028,42.417,330.028,43.832 M332.85,43.752
			c0,1.767-0.664,2.742-1.807,2.742c-1.015,0-1.71-0.951-1.726-2.67c0-1.751,0.76-2.703,1.814-2.703
			C332.219,41.121,332.85,42.097,332.85,43.752"/>
		<path clip-path="url(#SVGID_10_)" fill="none" stroke="#496999" d="M325.707,124.634c0,3.749-3.039,6.789-6.789,6.789
			c-3.748,0-6.789-3.04-6.789-6.789s3.041-6.789,6.789-6.789C322.668,117.845,325.707,120.885,325.707,124.634z M318.912,118.273
			V107.66"/>
	</g>
	<polygon fill="#2B2E56" points="283.471,86.376 283.455,86.376 282.553,86.864 282.416,86.328 283.551,85.72 284.151,85.72 
		284.151,90.918 283.471,90.918 	"/>
	<g>
		<defs>
			<rect id="SVGID_11_" x="-91" y="-240.89" width="595.276" height="841.89"/>
		</defs>
		<clipPath id="SVGID_12_">
			<use xlink:href="#SVGID_11_"  overflow="visible"/>
		</clipPath>
		<path clip-path="url(#SVGID_12_)" fill="#2B2E56" d="M286.712,87.439c0,0.648,0.392,1.104,1,1.104c0.471,0,0.84-0.232,1.023-0.544
			c0.039-0.072,0.065-0.144,0.065-0.264c0-0.888-0.328-1.567-1.072-1.567C287.136,86.168,286.712,86.695,286.712,87.439
			 M286.456,90.421c0.152,0.017,0.328,0,0.568-0.023c0.409-0.056,0.791-0.216,1.088-0.504c0.344-0.312,0.592-0.768,0.688-1.375
			h-0.026c-0.287,0.351-0.703,0.551-1.23,0.551c-0.928,0-1.527-0.704-1.527-1.591c0-0.983,0.711-1.847,1.775-1.847
			c1.062,0,1.719,0.855,1.719,2.199c0,1.135-0.383,1.935-0.895,2.431c-0.4,0.391-0.953,0.631-1.512,0.695
			c-0.255,0.04-0.48,0.048-0.648,0.04V90.421z"/>
		<path clip-path="url(#SVGID_12_)" fill="none" stroke="#496999" d="M335.871,43.862c0,3.749-3.039,6.789-6.789,6.789
			c-3.748,0-6.789-3.04-6.789-6.789c0-3.749,3.041-6.789,6.789-6.789C332.832,37.073,335.871,40.113,335.871,43.862z
			 M333.487,48.464l7.199,7.201 M292.836,88.245c0,3.749-3.039,6.789-6.789,6.789c-3.748,0-6.789-3.04-6.789-6.789
			c0-3.749,3.041-6.789,6.789-6.789C289.797,81.456,292.836,84.496,292.836,88.245z M292.51,88.348h10.184"/>
		<path clip-path="url(#SVGID_12_)" fill="#2B2E56" d="M338.452,73.06c0,0.648,0.39,1.104,0.998,1.104
			c0.473,0,0.84-0.232,1.023-0.544c0.041-0.072,0.065-0.144,0.065-0.264c0-0.888-0.328-1.567-1.071-1.567
			C338.876,71.789,338.452,72.317,338.452,73.06 M338.196,76.042c0.152,0.017,0.328,0,0.566-0.023
			c0.409-0.056,0.793-0.216,1.088-0.504c0.344-0.312,0.592-0.768,0.688-1.375h-0.024c-0.287,0.351-0.703,0.551-1.232,0.551
			c-0.926,0-1.525-0.704-1.525-1.591c0-0.983,0.71-1.847,1.773-1.847c1.064,0,1.721,0.855,1.721,2.199
			c0,1.135-0.385,1.935-0.897,2.431c-0.4,0.391-0.951,0.631-1.512,0.695c-0.255,0.04-0.478,0.048-0.646,0.04V76.042z"/>
	</g>
	<path fill="none" stroke="#496999" d="M355.779,153.056l-4.429,4.43 M351.35,153.056l4.429,4.43 M355.779,194.77l-4.429,4.429
		 M351.35,194.77l4.429,4.429 M355.779,256.277l-4.429,4.43 M351.35,256.277l4.429,4.43 M307.494,109.255l-4.43,4.43
		 M303.064,109.255l4.43,4.43 M313.59,57.026l-4.43,4.43 M309.16,57.026l4.43,4.43"/>
	<g>
		<defs>
			<rect id="SVGID_13_" x="-91" y="-240.89" width="595.276" height="841.89"/>
		</defs>
		<clipPath id="SVGID_14_">
			<use xlink:href="#SVGID_13_"  overflow="visible"/>
		</clipPath>
		<path clip-path="url(#SVGID_14_)" fill="none" stroke="#496999" stroke-linecap="round" d="M342.384,53.992
			c-0.699,0.371-1.695,1.128-1.695,2.432c0,2.01,3.545,4.019,14.065,4.019c10.519,0,12.646-2.601,12.646-4.492
			c0-1.185-1.16-1.814-2.027-2.117 M395.623,61.823c0.185-1.212,0.759-3.272,2.509-3.272c2.483,0,4.493,6.265,4.493,13.948
			c0,7.683-1.537,15.011-4.02,15.011c-1.764,0-2.514-1.852-2.799-2.922 M321.316,63.034c0,0-1.125-2.125-3.285-0.973
			c-1.994,1.062-0.313,11.824,2.693,18.818c2.967,6.905,5.643,10.643,7.299,10.052 M331.824,118.715c0,0-2.975,0.449-2.975,2.694
			c0,2.246,5.032,5.871,26.504,5.871c21.475,0,26.641-3.371,26.641-6.083c0-1.783-2.471-2.493-2.471-2.493 M330.181,135.378
			c-1.072,0.302-2.496,0.967-2.496,2.367c0,2.246,5.557,5.965,27.305,5.965c21.748,0,27.4-2.54,27.527-6.083
			c0.047-1.307-1.515-2.098-2.519-2.497 M353.666,160.576c-0.075,0.656-0.049,1.114-0.049,2.317c0,2.719,9.906,4.124,16.265,3.574
			c8.393-0.724,15.407-3.192,15.407-5.793c0-1.732-1.328-2.676-2.217-3.114 M315.312,166.154c-0.857-0.438-2.588-1.628-1.455-3.705
			c1.785-3.275,10.533-1.137,15.252,1.127c8.73,4.192,11.906,7.72,10.516,9.865c-0.684,1.052-1.537,1.292-2.528,1.187
			 M318.945,221.055c-0.582,0.208-1.274,0.602-1.274,1.321c0,1.3,3.514,2.367,7.77,2.367s9.102-0.357,9.102-2.012
			c0-0.97-0.772-1.371-1.411-1.538 M311.709,249.831c0,0-1.28,0.913,0.966,4.577s4.846,8.037,6.62,7.328
			c1.773-0.709,4.609-6.145,5.201-7.446c0.59-1.301,1.138-2.999,2.01-4.492c0.548-0.94,2.966-4.871,3.675-6.29
			c0.709-1.418,1.407-4.229,2.115-6.002c0.71-1.773,2.719-4.846,2.483-5.91c-0.236-1.064-1.037-1.663-1.037-1.663 M409.861,37.438
			c0,0,1.91-0.546,3.346-1.707c1.433-1.161,2.117-3.551,2.117-3.551"/>
	</g>
	<path fill="none" stroke="#496999" d="M357.609,105.188l-4.428,4.43 M353.181,105.188l4.428,4.43 M313.121,105.188l-4.43,4.43
		 M308.691,105.188l4.43,4.43 M353.564,155.271v103.221"/>
	<line fill="none" stroke="#496999" stroke-linecap="round" x1="332.388" y1="107.563" x2="310.722" y2="107.563"/>
	<g>
		<defs>
			<rect id="SVGID_15_" x="-91" y="-240.89" width="595.276" height="841.89"/>
		</defs>
		<clipPath id="SVGID_16_">
			<use xlink:href="#SVGID_15_"  overflow="visible"/>
		</clipPath>
		<g clip-path="url(#SVGID_16_)">
			<rect x="332.477" y="107.063" fill="#496999" width="20.729" height="1"/>
		</g>
		<g clip-path="url(#SVGID_16_)">
			<path fill="#496999" d="M376.585,118.324c-0.674-0.066-1.835-0.169-3.479-0.272l0.062-0.998c1.662,0.104,2.835,0.208,3.515,0.275
				L376.585,118.324z"/>
		</g>
		<g clip-path="url(#SVGID_16_)">
			<path fill="#496999" d="M371.691,117.965l-1.257-0.083c-1.468-0.099-2.354-0.159-4.228-0.17l0.006-1
				c1.904,0.011,2.853,0.075,4.289,0.172l1.252,0.083L371.691,117.965z"/>
		</g>
		<g clip-path="url(#SVGID_16_)">
			<path fill="#496999" d="M364.798,117.708c-1.303-0.012-2.081-0.053-2.791-0.09c-0.505-0.026-0.975-0.051-1.579-0.062l0.018-1
				c0.618,0.011,1.098,0.036,1.614,0.063c0.698,0.037,1.465,0.077,2.748,0.088L364.798,117.708z"/>
		</g>
		<g clip-path="url(#SVGID_16_)">
			<path fill="#496999" d="M359.077,117.549c-1.314-0.007-3.124-0.03-4.061-0.042l0.014-1c0.935,0.012,2.74,0.035,4.053,0.042
				L359.077,117.549z"/>
		</g>
		<g clip-path="url(#SVGID_16_)">
			<path fill="#496999" d="M335.802,118.678l-0.121-0.993c4.389-0.534,11.166-0.973,15.592-1.131l0.035,0.999
				C346.903,117.71,340.162,118.147,335.802,118.678z"/>
		</g>
		<g clip-path="url(#SVGID_16_)">
			<path fill="#496999" d="M333.681,118.967c-0.241,0-0.453-0.175-0.493-0.421c-0.043-0.272,0.143-0.529,0.415-0.572
				c0.322-0.051,0.67-0.104,1.04-0.155c0.268-0.036,0.525,0.154,0.562,0.428c0.037,0.273-0.154,0.525-0.428,0.563
				c-0.362,0.049-0.702,0.101-1.017,0.151C333.733,118.965,333.707,118.967,333.681,118.967z M377.331,118.401
				c-0.021,0-0.04-0.001-0.061-0.003l-0.489-0.053c-0.274-0.028-0.474-0.274-0.445-0.549c0.028-0.275,0.278-0.471,0.549-0.446
				l0.505,0.055c0.274,0.033,0.47,0.282,0.437,0.557C377.796,118.214,377.58,118.401,377.331,118.401z M373.037,118.047
				c-0.012,0-0.022,0-0.034-0.001l-0.997-0.061c-0.275-0.018-0.484-0.255-0.467-0.531c0.018-0.275,0.251-0.484,0.531-0.467
				l0.999,0.061c0.275,0.019,0.484,0.256,0.466,0.532C373.518,117.844,373.298,118.047,373.037,118.047z M366.053,117.712
				c-0.001,0-0.002,0-0.003,0l-1-0.003c-0.276-0.001-0.499-0.227-0.497-0.503c0.002-0.275,0.226-0.497,0.5-0.497
				c0.001,0,0.002,0,0.003,0l1,0.003c0.276,0.001,0.499,0.227,0.497,0.503C366.551,117.49,366.327,117.712,366.053,117.712z
				 M360.312,117.555c-0.002,0-0.004,0-0.006,0l-0.997-0.005c-0.276-0.001-0.499-0.227-0.497-0.503
				c0.002-0.275,0.225-0.497,0.5-0.497c0.001,0,0.002,0,0.003,0l1.003,0.005c0.276,0.003,0.498,0.23,0.494,0.506
				C360.808,117.335,360.585,117.555,360.312,117.555z M354.908,117.505c-0.002,0-0.004,0-0.006,0l-0.502-0.007
				c-0.277-0.005-0.622-0.005-1.024,0.001c-0.272,0-0.503-0.217-0.507-0.493c-0.004-0.276,0.217-0.503,0.493-0.507
				c0.415-0.006,0.771-0.006,1.055-0.001l0.497,0.007c0.276,0.003,0.498,0.23,0.494,0.506
				C355.404,117.285,355.182,117.505,354.908,117.505z"/>
		</g>
		<g clip-path="url(#SVGID_16_)">
			<path fill="#496999" d="M305.289,112.201c-0.229,0-0.435-0.157-0.487-0.389c-0.022-0.099-2.263-10.042-2.263-22.24
				c0-12.254,8.309-30.133,8.393-30.312c0.117-0.25,0.417-0.358,0.665-0.241c0.25,0.117,0.358,0.415,0.241,0.665
				c-0.083,0.177-8.299,17.858-8.299,29.888c0,12.086,2.215,21.919,2.237,22.018c0.062,0.269-0.106,0.537-0.376,0.599
				C305.363,112.197,305.325,112.201,305.289,112.201z"/>
		</g>
		<g clip-path="url(#SVGID_16_)">
			<path fill="#496999" d="M326.349,73.343c-1.158-2.98-2.466-5.548-3.359-7.178l0.877-0.48c0.908,1.656,2.237,4.266,3.414,7.296
				L326.349,73.343z"/>
		</g>
		<g clip-path="url(#SVGID_16_)">
			<path fill="#496999" d="M328.663,85.002c-0.21-2.082-0.674-6.014-1.427-8.966l0.969-0.247c0.769,3.015,1.24,7.003,1.452,9.112
				L328.663,85.002z"/>
		</g>
		<g clip-path="url(#SVGID_16_)">
			<path fill="#496999" d="M329.272,86.668c-0.258,0-0.477-0.199-0.497-0.46l-0.054-0.602c-0.025-0.275,0.177-0.519,0.451-0.544
				c0.288-0.025,0.52,0.177,0.545,0.452l0.054,0.615c0.022,0.275-0.184,0.516-0.458,0.538
				C329.3,86.668,329.286,86.668,329.272,86.668z M327.388,75.238c-0.212,0-0.408-0.135-0.477-0.348
				c-0.062-0.194-0.124-0.381-0.189-0.559l-0.184-0.495c-0.098-0.258,0.032-0.547,0.291-0.645c0.258-0.098,0.547,0.033,0.645,0.291
				l0.188,0.508c0.068,0.188,0.135,0.387,0.202,0.595c0.084,0.263-0.061,0.544-0.324,0.628
				C327.489,75.23,327.438,75.238,327.388,75.238z M322.906,65.495c-0.173,0-0.341-0.09-0.434-0.25
				c-0.166-0.29-0.262-0.447-0.264-0.45c-0.143-0.236-0.067-0.544,0.169-0.687c0.236-0.141,0.544-0.068,0.687,0.168
				c0,0,0.1,0.165,0.275,0.47c0.138,0.24,0.055,0.545-0.185,0.683C323.077,65.474,322.991,65.495,322.906,65.495z"/>
		</g>
		<g clip-path="url(#SVGID_16_)">
			<path fill="#496999" d="M395.098,82.271c-1.314-6.004-0.51-16.521-0.475-16.966l0.996,0.078
				c-0.008,0.107-0.827,10.815,0.455,16.674L395.098,82.271z"/>
		</g>
		<g clip-path="url(#SVGID_16_)">
			<path fill="#496999" d="M336.164,134.317l-0.127-0.992c3.022-0.386,8.421-0.83,16.977-0.772l-0.008,1
				C344.505,133.49,339.155,133.934,336.164,134.317z"/>
		</g>
		<g clip-path="url(#SVGID_16_)">
			<path fill="#496999" d="M375.224,134.729c-2.799-0.365-7.955-0.848-16.627-1.078l0.027-1c8.714,0.231,13.906,0.718,16.729,1.086
				L375.224,134.729z"/>
		</g>
		<g clip-path="url(#SVGID_16_)">
			<path fill="#496999" d="M377.49,135.081c-0.035,0-0.071-0.004-0.107-0.012c-0.012-0.002-0.341-0.074-1.065-0.185
				c-0.273-0.042-0.461-0.297-0.419-0.57s0.303-0.458,0.569-0.418c0.782,0.12,1.131,0.197,1.131,0.197
				c0.269,0.06,0.438,0.327,0.379,0.596C377.927,134.922,377.72,135.081,377.49,135.081z M332.764,134.893
				c-0.22,0-0.421-0.146-0.481-0.369c-0.073-0.266,0.084-0.541,0.35-0.614c0,0,0.356-0.098,1.146-0.242
				c0.268-0.05,0.531,0.13,0.582,0.402c0.05,0.271-0.131,0.532-0.402,0.582c-0.717,0.131-1.049,0.22-1.063,0.224
				C332.851,134.887,332.807,134.893,332.764,134.893z M356.382,133.6c-0.003,0-0.006,0-0.01,0l-2.238-0.036
				c-0.276-0.003-0.498-0.229-0.495-0.505c0.003-0.274,0.227-0.495,0.5-0.495c0.002,0,0.004,0,0.005,0l2.248,0.036
				c0.275,0.005,0.495,0.233,0.49,0.509C356.877,133.382,356.653,133.6,356.382,133.6z"/>
		</g>
		<g clip-path="url(#SVGID_16_)">
			<path fill="#496999" d="M357.82,159.095l-0.283-0.959c1.951-0.578,5.029-1.358,8.61-1.795l0.121,0.992
				C362.756,157.762,359.735,158.528,357.82,159.095z"/>
		</g>
		<g clip-path="url(#SVGID_16_)">
			<path fill="#496999" d="M379.21,157.291c-1.709-0.214-5.257-0.532-9.833-0.242l-0.062-0.998
				c4.654-0.294,8.276,0.028,10.021,0.248L379.21,157.291z"/>
		</g>
		<g clip-path="url(#SVGID_16_)">
			<path fill="#496999" d="M356.018,159.647c-0.204,0-0.396-0.126-0.47-0.33c-0.095-0.259,0.04-0.546,0.299-0.641
				c0,0,0.198-0.072,0.566-0.192c0.262-0.087,0.544,0.057,0.631,0.32c0.086,0.262-0.058,0.545-0.32,0.63
				c-0.345,0.113-0.531,0.18-0.535,0.182C356.132,159.637,356.074,159.647,356.018,159.647z M380.583,157.49
				c-0.03,0-0.062-0.003-0.094-0.009c-0.006-0.001-0.224-0.042-0.633-0.103c-0.273-0.041-0.462-0.295-0.421-0.568
				c0.04-0.273,0.299-0.458,0.567-0.421c0.441,0.065,0.674,0.11,0.674,0.11c0.271,0.052,0.449,0.313,0.397,0.585
				C381.028,157.323,380.818,157.49,380.583,157.49z M366.783,157.269c-0.251,0-0.468-0.189-0.496-0.446
				c-0.03-0.274,0.168-0.521,0.442-0.551l0.585-0.061c0.224-0.022,0.447-0.042,0.668-0.061c0.253-0.032,0.516,0.181,0.539,0.457
				c0.023,0.275-0.182,0.517-0.457,0.54c-0.215,0.018-0.433,0.038-0.651,0.06l-0.574,0.06
				C366.82,157.268,366.802,157.269,366.783,157.269z"/>
		</g>
		<g clip-path="url(#SVGID_16_)">
			<path fill="#496999" d="M325.201,171.744c-1.96-0.802-5.304-2.565-7.123-3.544l0.475-0.881c1.45,0.781,5.038,2.686,7.027,3.5
				L325.201,171.744z"/>
		</g>
		<g clip-path="url(#SVGID_16_)">
			<path fill="#496999" d="M334.209,174.381c-1.885-0.51-5.353-1.459-7.392-2.083l0.293-0.956c2.025,0.619,5.48,1.564,7.36,2.074
				L334.209,174.381z"/>
		</g>
		<g clip-path="url(#SVGID_16_)">
			<path fill="#496999" d="M335.035,174.585c-0.043,0-0.086-0.005-0.13-0.017l-0.483-0.131c-0.267-0.072-0.424-0.347-0.352-0.613
				c0.072-0.266,0.346-0.424,0.613-0.352l0.481,0.13c0.267,0.071,0.425,0.346,0.354,0.612
				C335.458,174.438,335.256,174.585,335.035,174.585z M326.546,172.191c-0.05,0-0.101-0.007-0.15-0.023
				c-0.179-0.057-0.342-0.109-0.486-0.158c-0.146-0.048-0.312-0.108-0.493-0.18c-0.257-0.102-0.382-0.393-0.28-0.649
				c0.102-0.257,0.392-0.382,0.649-0.28c0.161,0.064,0.311,0.118,0.443,0.163c0.142,0.048,0.297,0.098,0.468,0.151
				c0.264,0.083,0.409,0.364,0.326,0.627C326.955,172.055,326.759,172.191,326.546,172.191z M317.917,168.044
				c-0.081,0-0.163-0.02-0.239-0.061l-0.439-0.24c-0.242-0.133-0.331-0.437-0.198-0.679c0.134-0.243,0.439-0.328,0.679-0.198
				l0.438,0.238c0.242,0.132,0.332,0.436,0.2,0.678C318.266,167.95,318.094,168.044,317.917,168.044z"/>
		</g>
		<g clip-path="url(#SVGID_16_)">
			<path fill="#496999" d="M330.514,220.868c-4.367-0.817-9.159-0.098-9.207-0.091l-0.152-0.988c0.202-0.03,5.013-0.754,9.543,0.097
				L330.514,220.868z"/>
		</g>
		<g clip-path="url(#SVGID_16_)">
			<path fill="#496999" d="M314.856,246.958l-0.762-0.648c1.461-1.718,3.564-4.152,5.287-5.998l0.73,0.682
				C318.403,242.825,316.311,245.248,314.856,246.958z"/>
		</g>
		<g clip-path="url(#SVGID_16_)">
			<path fill="#496999" d="M321.413,239.637l-0.715-0.699c0.446-0.456,0.827-0.841,1.162-1.179c1.186-1.196,1.78-1.797,2.698-2.996
				l0.795,0.607c-0.957,1.25-1.605,1.904-2.783,3.093C322.236,238.8,321.857,239.182,321.413,239.637z"/>
		</g>
		<g clip-path="url(#SVGID_16_)">
			<path fill="#496999" d="M326.307,234.082l-0.807-0.59c1.788-2.443,3.848-5.066,5.666-5.269l0.109,0.994
				C329.742,229.388,327.422,232.559,326.307,234.082z"/>
		</g>
		<g clip-path="url(#SVGID_16_)">
			<path fill="#496999" d="M313.447,248.352c-0.113,0-0.227-0.038-0.32-0.116c-0.212-0.177-0.24-0.492-0.063-0.704l0.343-0.409
				c0.179-0.212,0.494-0.238,0.705-0.061s0.238,0.493,0.061,0.705l-0.341,0.405C313.732,248.29,313.59,248.352,313.447,248.352z
				 M320.111,240.765c-0.124,0-0.247-0.046-0.344-0.137c-0.2-0.19-0.209-0.507-0.02-0.707l0.719-0.747
				c0.191-0.198,0.508-0.203,0.707-0.012c0.198,0.191,0.204,0.508,0.012,0.707l-0.711,0.739
				C320.376,240.712,320.244,240.765,320.111,240.765z M325.056,235.437c-0.106,0-0.213-0.033-0.303-0.103
				c-0.22-0.167-0.263-0.48-0.095-0.7l0.59-0.796c0.163-0.223,0.478-0.271,0.698-0.108c0.223,0.163,0.271,0.476,0.108,0.698
				l-0.602,0.812C325.355,235.368,325.206,235.437,325.056,235.437z M331.92,229.316c-0.065,0-0.132-0.013-0.195-0.04
				c-0.097-0.041-0.195-0.062-0.302-0.064c-0.276-0.007-0.494-0.235-0.488-0.512c0.007-0.276,0.273-0.494,0.512-0.488
				c0.231,0.006,0.457,0.054,0.669,0.145c0.255,0.107,0.373,0.401,0.265,0.655C332.299,229.202,332.114,229.316,331.92,229.316z"/>
		</g>
		<g clip-path="url(#SVGID_16_)">
			<path fill="#496999" d="M346.089,53.517l-0.17-0.985c1.323-0.229,4.041-0.619,7.368-0.668l0.016,1
				C350.043,52.912,347.384,53.294,346.089,53.517z"/>
		</g>
		<g clip-path="url(#SVGID_16_)">
			<path fill="#496999" d="M362.415,53.582c-1.363-0.238-4.147-0.648-7.486-0.715l0.02-1c3.406,0.069,6.248,0.487,7.639,0.729
				L362.415,53.582z"/>
		</g>
		<g clip-path="url(#SVGID_16_)">
			<path fill="#496999" d="M363.206,53.721c-0.033,0-0.067-0.003-0.102-0.01c-0.004-0.001-0.171-0.036-0.479-0.092
				c-0.271-0.049-0.451-0.31-0.402-0.581c0.05-0.273,0.313-0.455,0.582-0.402c0.327,0.059,0.503,0.096,0.503,0.096
				c0.271,0.056,0.444,0.321,0.388,0.591C363.646,53.559,363.438,53.721,363.206,53.721z M345.102,53.695
				c-0.229,0-0.437-0.159-0.488-0.392c-0.06-0.27,0.11-0.536,0.38-0.596c0,0,0.178-0.04,0.506-0.101
				c0.274-0.049,0.532,0.128,0.583,0.4c0.051,0.271-0.128,0.532-0.399,0.583c-0.303,0.056-0.468,0.093-0.473,0.094
				C345.173,53.691,345.137,53.695,345.102,53.695z M354.503,52.86c-0.001,0-0.002,0-0.003,0l-0.497-0.002l-0.497,0.002
				c-0.001,0-0.002,0-0.003,0c-0.274,0-0.498-0.222-0.5-0.497c-0.002-0.276,0.221-0.501,0.497-0.503l0.503-0.002l0.503,0.002
				c0.276,0.001,0.499,0.227,0.497,0.503C355.001,52.638,354.777,52.86,354.503,52.86z"/>
		</g>
		<g clip-path="url(#SVGID_16_)">
			<path fill="#496999" d="M413.214,74.349c-2.932-2.458-4.438-4.458-5.185-5.702l0.857-0.515c0.708,1.179,2.145,3.082,4.97,5.45
				L413.214,74.349z"/>
		</g>
		<g clip-path="url(#SVGID_16_)">
			<path fill="#496999" d="M423.013,80.504c-1.373-0.574-4.188-1.913-7.609-4.437l0.594-0.805c3.338,2.462,6.069,3.763,7.4,4.319
				L423.013,80.504z"/>
		</g>
		<g clip-path="url(#SVGID_16_)">
			<path fill="#496999" d="M424.29,80.954c-0.049,0-0.099-0.007-0.147-0.022c0,0-0.202-0.062-0.577-0.207
				c-0.258-0.099-0.387-0.388-0.288-0.646c0.099-0.258,0.39-0.386,0.646-0.288c0.328,0.125,0.508,0.183,0.518,0.185
				c0.263,0.083,0.409,0.363,0.327,0.626C424.701,80.817,424.504,80.954,424.29,80.954z M414.774,75.463
				c-0.107,0-0.216-0.035-0.308-0.105l-0.858-0.684c-0.214-0.175-0.245-0.49-0.07-0.704c0.175-0.214,0.49-0.244,0.703-0.071
				l0.841,0.669c0.218,0.17,0.257,0.484,0.087,0.702C415.07,75.397,414.923,75.463,414.774,75.463z M407.982,67.999
				c-0.189,0-0.371-0.108-0.455-0.292c-0.161-0.353-0.212-0.542-0.212-0.542c-0.071-0.266,0.084-0.542,0.349-0.615
				c0.267-0.076,0.538,0.079,0.613,0.341c0.006,0.02,0.049,0.157,0.16,0.4c0.114,0.251,0.004,0.548-0.248,0.663
				C408.123,67.984,408.052,67.999,407.982,67.999z"/>
		</g>
		<g clip-path="url(#SVGID_16_)">
			<path fill="#496999" d="M426.172,81.445c-0.276,0-0.5-0.224-0.5-0.5c0-0.276,0.224-0.5,0.5-0.5
				c1.213-0.001,2.015-0.277,2.383-0.822c0.517-0.764,0.137-2.022-0.136-2.705c-0.862-2.151-3.977-5.83-7.936-9.372
				c-3.983-3.563-10.399-6.364-12.255-5.354c-0.736,0.401-0.668,1.499-0.562,2.116c0.047,0.272-0.137,0.531-0.408,0.578
				c-0.278,0.044-0.531-0.136-0.578-0.408c-0.262-1.522,0.118-2.646,1.069-3.164c2.502-1.361,9.377,1.887,13.399,5.486
				c4.128,3.692,7.269,7.427,8.197,9.746c0.606,1.518,0.619,2.775,0.036,3.637C428.817,81.02,427.737,81.444,426.172,81.445
				L426.172,81.445z"/>
		</g>
		<g clip-path="url(#SVGID_16_)">
			<path d="M321.898,176.177c-0.107,0-0.216-0.034-0.307-0.105c-0.218-0.169-0.258-0.484-0.088-0.702
				c0.547-0.704,1.998-2.77,2.143-3.86c0.188-1.416,0.19-5.459,0.19-5.5c0-0.276,0.224-0.5,0.5-0.5s0.5,0.224,0.5,0.5
				c0,0.169-0.002,4.151-0.198,5.632c-0.208,1.555-2.127,4.062-2.346,4.342C322.194,176.11,322.047,176.177,321.898,176.177z"/>
		</g>
		<g clip-path="url(#SVGID_16_)">
			<path fill="#2B2E56" d="M315.209,127.256v-0.432l0.552-0.535c1.327-1.264,1.935-1.935,1.935-2.719
				c0-0.528-0.248-1.015-1.023-1.015c-0.472,0-0.864,0.24-1.104,0.439l-0.223-0.495c0.351-0.296,0.871-0.528,1.463-0.528
				c1.119,0,1.59,0.767,1.59,1.511c0,0.96-0.695,1.735-1.791,2.791l-0.407,0.383v0.017h2.326v0.583H315.209z"/>
		</g>
		<g clip-path="url(#SVGID_16_)">
			<path fill="#2B2E56" d="M319.952,124.682c0,1.351,0.416,2.119,1.055,2.119c0.712,0,1.056-0.84,1.056-2.167
				c0-1.28-0.32-2.119-1.056-2.119C320.4,122.515,319.952,123.267,319.952,124.682 M322.775,124.602
				c0,1.767-0.664,2.742-1.808,2.742c-1.015,0-1.71-0.951-1.726-2.67c0-1.751,0.76-2.703,1.814-2.703
				C322.143,121.971,322.775,122.947,322.775,124.602"/>
		</g>
	</g>
</g>
<g>
	<defs>
		<rect id="SVGID_17_" x="-91" y="-240.89" width="595.276" height="841.89"/>
	</defs>
	<clipPath id="SVGID_18_">
		<use xlink:href="#SVGID_17_"  overflow="visible"/>
	</clipPath>
</g>
<g>
	<defs>
		<rect id="SVGID_19_" x="-91" y="-240.89" width="595.276" height="841.89"/>
	</defs>
	<clipPath id="SVGID_20_">
		<use xlink:href="#SVGID_19_"  overflow="visible"/>
	</clipPath>
</g>
<g>
	<path fill="none" stroke="#000000" stroke-linecap="round" stroke-linejoin="round" d="M115.027,71.646
		c-0.948-1.697-1.818-3.381-2.346-4.644c-1.357-3.268-2.044-9.126-2.044-9.126s0,1.907-0.951,2.177
		c-0.949,0.274-1.907-1.638-1.907-1.638s-1.5-4.491-1.5-8.171c0-3.677-1.225-9.533,0.953-9.673c2.182-0.134,2.317,2.044,2.317,2.044
		s0.27-12.257,0.27-20.159c0-7.906,9.264-15.937,22.89-15.937h-1.633c13.621,0,22.884,8.031,22.884,15.937
		c0,7.902,0.274,20.159,0.274,20.159s0.14-2.177,2.317-2.044c2.177,0.14,0.954,5.996,0.954,9.673c0,3.68-1.501,8.171-1.501,8.171
		s-0.953,1.912-1.907,1.638c-0.949-0.27-0.949-2.177-0.949-2.177s-0.687,5.857-2.048,9.126c-0.463,1.118-1.201,2.572-2.028,4.071
		 M225.663,94.172c0,0-6.834-2.398-11.915-3.367c-5.084-0.97-13.015-0.991-17.856-1.716c-4.839-0.727-11.132-3.387-19.607-5.326
		c-8.47-1.936-11.374,0.727-19.606-1.694c-8.229-2.422-9.439-15.924-9.439-15.924v-4.113 M219.855,41.162
		c0,0,2.662,5.566,4.354,9.439c1.697,3.874,2.904,8.232,3.147,14.766c0.242,6.536-2.177,18.881-2.421,22.026
		c-0.242,3.147,1.939,11.859,1.939,11.859 M183.835,123.538c0,0,6.296-3.874,13.798-4.116c7.505-0.24,14.522,2.424,19.849,2.18
		c5.323-0.243,9.878-0.566,17.378-1.046c7.505-0.485,17.187,0,18.881-5.81c1.695-5.811-3.874-22.51-7.263-35.096
		c-3.386-12.589-9.439-30.257-9.682-32.435c-0.239-2.18,0-8.23-1.692-11.862c-1.694-3.629-14.283-11.374-15.975-11.859
		c-1.697-0.483-11.859,2.179-13.798,2.421c-1.935,0.243-5.081,5.324-5.324,6.051c-0.242,0.727-1.454,7.02-0.242,7.747
		c1.212,0.727,2.177,0.242,2.177,0.242s0.553,1.5,1.454,1.935c0.69,0.336,1.557,0.425,1.557,0.425s-0.186,0.857,1.411,1.843
		c1.177,0.72,2.643,0,2.643,0s0.633,1.724,2.087,1.966c1.454,0.242,2.712-1.088,3.92-1.33c1.212-0.242,5.328-0.965,5.328-0.965
		 M83.295,126.392c0,0-3.034,16.53-3.461,22.087c-0.429,5.557-3.432,19.759-3.715,23.036c-0.286,3.276-0.277,9.311,0.296,15.011
		c0.568,5.7-2.71,22.088-4.703,30.78c-1.994,8.69-2.852,11.686,0.142,17.81c2.991,6.128,0.14,17.957-2.139,18.1
		c-2.281,0.142-1.71-6.84-1.851-8.981c-0.14-2.137-1.851-4.986-2.848-4.986c-0.997,0-2.955,13.935,0.323,20.064
		c3.276,6.126,8.521,6.691,5.366,9.846c-3.243,3.243-8.481-0.73-12.561-3.95c-1.897-1.501-5.525-9.956-6.094-13.089
		c-0.571-3.138,3.095-18.715,3.435-24.17c0.342-5.455,0-22.502-1.705-34.434c-1.705-11.931,2.047-31.363,2.389-34.431
		c0.342-3.069,0-12.274-0.342-20.797c-0.342-8.523,1.062-33.478,8.2-40.123c6.304-5.87,11.099-7.686,19.35-10.002
		c7.88-2.206,15.819-3.1,21.314-4.765c11.25-3.41,11.934-16.983,11.934-16.983l-0.127-3.585 M184.808,119.194
		c0,0-4.432,23.181-6.476,31.705c-2.048,8.523-7.416,23.054-6.735,33.965c0.684,10.91,0.848,24.145,1.532,30.621
		c0.681,6.479,2.044,22.5,2.044,22.5 M82.418,121.922c0,0,4.09,24.546,7.844,36.82c3.748,12.273,4.944,27.505,3.068,40.424
		c-1.649,11.385-3.068,41.4-3.068,41.4"/>
	<path fill="none" stroke="#496999" d="M155.2,115.486c-5.961,0-10.797-4.836-10.797-10.797c0-5.964,4.836-10.797,10.797-10.797
		c5.964,0,10.797,4.833,10.797,10.797C165.997,110.65,161.164,115.486,155.2,115.486z M155.375,77.755v16.196 M212.471,164.762
		c-5.964,0-10.797-4.833-10.797-10.797c0-5.961,4.833-10.797,10.797-10.797c5.961,0,10.797,4.836,10.797,10.797
		C223.268,159.929,218.432,164.762,212.471,164.762z M212.543,126.997v16.196"/>
	<path fill="#2B2E56" d="M207.033,158.121v-0.687l0.876-0.854c2.112-2.009,3.077-3.074,3.077-4.324c0-0.838-0.394-1.611-1.627-1.611
		c-0.749,0-1.372,0.379-1.756,0.698l-0.353-0.789c0.558-0.472,1.385-0.838,2.327-0.838c1.78,0,2.529,1.22,2.529,2.401
		c0,1.53-1.107,2.761-2.85,4.44l-0.646,0.609v0.025h3.699v0.929H207.033z"/>
</g>
<polygon fill="#2B2E56" points="223.006,148.79 222.982,148.79 221.606,149.532 221.401,148.718 223.128,147.795 224.04,147.795 
	224.04,155.7 223.006,155.7 "/>
<g>
	<defs>
		<rect id="SVGID_21_" x="-569.699" y="-103.902" width="946.699" height="1338.902"/>
	</defs>
	<clipPath id="SVGID_22_">
		<use xlink:href="#SVGID_21_"  overflow="visible"/>
	</clipPath>
	<path clip-path="url(#SVGID_22_)" fill="none" stroke="#496999" d="M125.116,172.444c0,5.964-4.835,10.797-10.797,10.797
		c-5.962,0-10.797-4.833-10.797-10.797c0-5.962,4.835-10.798,10.797-10.798C120.281,161.646,125.116,166.482,125.116,172.444z
		 M132.848,147.364l11.452,16.222 M131.92,147.364l-11.452,16.222"/>
</g>
<polygon fill="#2B2E56" points="114.618,169.354 114.593,169.354 113.157,170.129 112.939,169.278 114.746,168.313 115.7,168.313 
	115.7,176.579 114.618,176.579 "/>
<g>
	<defs>
		<rect id="SVGID_23_" x="-569.699" y="-103.902" width="946.699" height="1338.902"/>
	</defs>
	<clipPath id="SVGID_24_">
		<use xlink:href="#SVGID_23_"  overflow="visible"/>
	</clipPath>
	<path clip-path="url(#SVGID_24_)" fill="none" stroke="#496999" d="M254.116,126.551H132.191V77.296h47.712 M59.889,89.084
		c0,0-18.176,28.564-18.176,68.627c0,40.064,2.966,71.224,2.966,71.224 M257.599,122.755l-7.045,7.045 M250.553,122.755l7.045,7.045
		 M135.647,122.755L128.6,129.8 M128.6,122.755l7.047,7.045 M183.426,73.823l-7.045,7.045 M176.381,73.823l7.045,7.045
		 M135.647,74.004l-7.047,7.044 M128.6,74.004l7.047,7.044 M63.316,85.443l-7.045,7.047 M56.271,85.443l7.045,7.047 M48.354,225.444
		l-7.044,7.045 M41.311,225.444l7.044,7.045 M24.842,154.077c0,5.964-4.833,10.797-10.797,10.797
		c-5.961,0-10.797-4.833-10.797-10.797c0-5.961,4.836-10.797,10.797-10.797C20.009,143.28,24.842,148.116,24.842,154.077z
		 M24.973,154.083h16.196 M160.692,172.443c0,5.964-4.836,10.797-10.797,10.797c-5.964,0-10.797-4.833-10.797-10.797
		c0-5.961,4.833-10.797,10.797-10.797C155.856,161.647,160.692,166.483,160.692,172.443z"/>
	<path clip-path="url(#SVGID_24_)" fill="none" stroke="#496999" stroke-linecap="round" d="M182.867,136.471
		c0.375,0.957,0.1,3.715-4.663,5.283c-7.634,2.516-10.843,5.355-45.077,5.355s-37.443-2.839-45.077-5.355
		c-4.765-1.568-5.038-4.326-4.663-5.283"/>
	<path clip-path="url(#SVGID_24_)" fill="none" stroke="#496999" stroke-miterlimit="10" d="M90.64,132.533
		c2.672-1.092,7.351-2.702,13.828-3.801"/>
	<path clip-path="url(#SVGID_24_)" fill="none" stroke="#496999" stroke-miterlimit="10" d="M109.42,128.005
		c6.963-0.945,12.438-1.457,15.358-1.657"/>
	<path clip-path="url(#SVGID_24_)" fill="none" stroke="#496999" stroke-linecap="round" d="M125.807,126.285
		c0.464-0.025,0.811-0.036,1.029-0.036 M105.414,128.579c0.312-0.049,0.627-0.097,0.946-0.143c0.344-0.049,0.684-0.099,1.019-0.146
		 M88.028,133.728c0,0,0.289-0.159,0.857-0.428"/>
	<path clip-path="url(#SVGID_24_)" fill="none" stroke="#496999" stroke-miterlimit="10" d="M179.956,133.728
		c0,0-6.476-3.569-18.332-5.293"/>
	<path clip-path="url(#SVGID_24_)" fill="#2B2E56" d="M149.774,108.769v-0.687l0.879-0.851c2.109-2.009,3.077-3.077,3.077-4.324
		c0-0.84-0.394-1.614-1.627-1.614c-0.752,0-1.376,0.382-1.756,0.698l-0.356-0.789c0.558-0.469,1.385-0.838,2.327-0.838
		c1.78,0,2.53,1.22,2.53,2.405c0,1.525-1.105,2.758-2.848,4.435l-0.649,0.611v0.025h3.699v0.929H149.774z"/>
	<path clip-path="url(#SVGID_24_)" fill="#2B2E56" d="M156.3,108.769v-0.687l0.879-0.851c2.112-2.009,3.081-3.077,3.081-4.324
		c0-0.84-0.394-1.614-1.63-1.614c-0.752,0-1.376,0.382-1.756,0.698l-0.356-0.789c0.558-0.469,1.385-0.838,2.33-0.838
		c1.78,0,2.53,1.22,2.53,2.405c0,1.525-1.105,2.758-2.852,4.435l-0.649,0.611v0.025h3.702v0.929H156.3z"/>
	<path clip-path="url(#SVGID_24_)" fill="#2B2E56" d="M147.539,176.43v-0.687l0.879-0.852c2.109-2.009,3.077-3.076,3.077-4.324
		c0-0.838-0.394-1.613-1.627-1.613c-0.752,0-1.376,0.38-1.756,0.698l-0.356-0.787c0.558-0.472,1.385-0.84,2.327-0.84
		c1.78,0,2.532,1.22,2.532,2.403c0,1.527-1.107,2.759-2.85,4.439l-0.649,0.609v0.025h3.699v0.929H147.539z"/>
</g>
<polygon fill="#2B2E56" points="9.58,151.308 9.555,151.308 8.117,152.082 7.903,151.231 9.708,150.264 10.662,150.264 
	10.662,158.529 9.58,158.529 "/>
<g>
	<defs>
		<rect id="SVGID_25_" x="-569.699" y="-103.902" width="946.699" height="1338.902"/>
	</defs>
	<clipPath id="SVGID_26_">
		<use xlink:href="#SVGID_25_"  overflow="visible"/>
	</clipPath>
	<path clip-path="url(#SVGID_26_)" fill="#2B2E56" d="M14.948,152.249c-0.013,0.827,0.623,1.271,1.578,1.525
		c0.711-0.24,1.258-0.751,1.258-1.5c0-0.662-0.394-1.349-1.398-1.349C15.457,150.925,14.948,151.536,14.948,152.249 M18.025,156.382
		c0-0.992-0.698-1.489-1.816-1.807c-0.967,0.28-1.489,0.929-1.489,1.716c-0.04,0.827,0.596,1.565,1.652,1.565
		C17.377,157.856,18.025,157.233,18.025,156.382 M15.203,154.181c-0.929-0.431-1.323-1.145-1.323-1.856
		c0-1.31,1.108-2.201,2.568-2.201c1.603,0,2.417,0.992,2.417,2.036c0,0.7-0.355,1.462-1.374,1.932v0.038
		c1.032,0.407,1.665,1.145,1.665,2.137c0,1.449-1.233,2.401-2.807,2.401c-1.73,0-2.774-1.016-2.774-2.225
		c0-1.042,0.623-1.792,1.64-2.225L15.203,154.181z"/>
</g>
<g>
	<defs>
		<rect id="SVGID_27_" x="-183" y="-965.888" width="1045.679" height="1478.888"/>
	</defs>
	<clipPath id="SVGID_28_">
		<use xlink:href="#SVGID_27_"  overflow="visible"/>
	</clipPath>
	<path clip-path="url(#SVGID_28_)" fill="none" stroke="#000000" stroke-linecap="round" stroke-linejoin="round" d="
		M671.369,272.185c-2.725-7.801-5.298-44.668-6.746-56.867c-1.447-12.2-0.411-21.714-1.447-32.882
		c-1.033-11.167-3.099-12.822-6.615-28.538s1.449-24.403,0.827-26.263c-0.618-1.864-0.622-9.719-0.206-12.411
		c0.411-2.686,14.475-26.058,15.302-28.538c0.817-2.458,2.168-7.313,1.815-11.926c-0.357-4.616-4.439-11.005-4.439-11.005
		s-8.523,3.726-11.896-0.179c-3.373-3.905-0.889-7.813-0.889-7.813s-1.484-1.669-1.484-2.554c0-0.889,0.397-1.2,0.397-1.2
		l1.98-0.859c0,0-2.714,0.191-2.535-1.052c0.174-1.245,0.58-3.389,0.58-3.389s-5.324-0.176-4.794-3.016
		c0.532-2.842,6.213-10.477,6.213-10.477s-0.887-12.251,3.552-17.93c4.435-5.681,10.649-11.896,29.294-8.523
		c18.64,3.373,17.751,31.955,13.847,36.752c-3.908,4.794-4.973,5.504-5.33,6.744c-0.353,1.244-0.037,9.461,0.989,13.27
		c1.307,4.857,8.813,23.495,13.442,37.843c2.066,6.408,1.033,36.396-4.137,49.01c-5.172,12.616-3.517,31.851,2.895,43.844
		c6.41,11.994,6.282,20.932,6.282,24.243c0,3.308-2.494,13.816-8.286,16.918"/>
	<path clip-path="url(#SVGID_28_)" fill="none" stroke="#000000" stroke-linecap="round" d="M710.327,229.999
		c0,0-1.862,13.443-1.448,17.375c0.415,3.928,0.415,14.478,0.209,18.408c-0.209,3.926-1.653,7.65-1.653,7.65"/>
	<path clip-path="url(#SVGID_28_)" fill="none" stroke="#000000" stroke-linecap="round" stroke-linejoin="round" d="
		M702.673,114.541c0,0-3.603,18.425-5.205,32.573c-1.602,14.15-0.267,19.485-1.602,21.489c-1.335,2.003-2.7,1.685-6.275,5.344
		 M676.509,111.341c0,0-3.067,11.745-3.202,18.019c-0.134,6.275,2.403,17.22,3.336,20.291c0.936,3.071,0.267,10.278,0.267,10.278
		 M684.174,31.045c0,0,2.196-1.746,4-0.17c1.806,1.579-1.296,8.003-1.746,9.749c-0.453,1.75-1.448,4.85-2.426,5.864
		c-1.495,1.551-2.412,0.111-2.412,0.111"/>
	<path clip-path="url(#SVGID_28_)" fill="none" stroke="#496999" d="M709.74,56.113l-7.78,7.78 M701.96,56.113l7.78,7.78
		 M669.318,71.879l-7.782,7.778 M661.536,71.879l7.782,7.778 M760.22,149.207c0,6.584-5.342,11.926-11.926,11.926
		c-6.587,0-11.928-5.342-11.928-11.926c0-6.587,5.34-11.926,11.928-11.926C754.878,137.281,760.22,142.62,760.22,149.207z
		 M718.708,149.249h17.888 M666,75.225c0,0-16.263,27.644-17.347,41.196c-1.084,13.552,2.168,54.208,4.337,68.303
		c2.168,14.093,2.711,67.76,33.61,67.76c30.897,0,40.655-20.057,40.655-35.777s-8.808-27.997-12.337-44.452
		c-1.602-7.455,2.125-17.951,4.748-29.271c3.16-13.66,3.65-28.266,2.168-36.863c-2.71-15.718-8.672-32.524-11.926-37.943
		c-3.251-5.421-4.337-8.131-4.337-8.131"/>
	<path clip-path="url(#SVGID_28_)" fill="none" stroke="#000000" stroke-linecap="round" stroke-linejoin="round" d="
		M531.369,272.185c-2.725-7.801-5.298-44.668-6.745-56.867c-1.447-12.2-0.411-21.714-1.447-32.882
		c-1.033-11.167-3.099-12.822-6.616-28.538c-3.517-15.717,1.449-24.403,0.827-26.263c-0.618-1.864-0.622-9.719-0.206-12.411
		c0.411-2.686,14.475-26.058,15.302-28.538c0.817-2.458,2.168-7.313,1.815-11.926c-0.357-4.616-4.439-11.005-4.439-11.005
		s-8.523,3.726-11.896-0.179c-3.373-3.905-0.889-7.813-0.889-7.813s-1.486-1.669-1.486-2.554c0-0.889,0.399-1.2,0.399-1.2
		l1.98-0.859c0,0-2.714,0.191-2.535-1.052c0.174-1.245,0.58-3.389,0.58-3.389s-5.326-0.176-4.794-3.016
		c0.532-2.842,6.213-10.477,6.213-10.477s-0.889-12.251,3.552-17.93c4.435-5.681,10.649-11.896,29.294-8.523
		c18.64,3.373,17.751,31.955,13.846,36.752c-3.907,4.794-4.971,5.504-5.328,6.744c-0.353,1.244-0.037,9.461,0.989,13.27
		c1.307,4.857,8.813,23.495,13.442,37.843c2.066,6.408,1.033,36.396-4.137,49.01c-5.172,12.616-3.517,31.851,2.895,43.844
		c6.41,11.994,6.282,20.932,6.282,24.243c0,3.308-2.494,13.816-8.286,16.918"/>
	<path clip-path="url(#SVGID_28_)" fill="none" stroke="#000000" stroke-linecap="round" d="M570.327,229.999
		c0,0-1.864,13.443-1.448,17.375c0.415,3.928,0.415,14.478,0.209,18.408c-0.209,3.926-1.653,7.65-1.653,7.65"/>
	<path clip-path="url(#SVGID_28_)" fill="none" stroke="#000000" stroke-linecap="round" stroke-linejoin="round" d="
		M562.672,114.541c0,0-3.601,18.425-5.205,32.573c-1.602,14.15-0.267,19.485-1.602,21.489c-1.333,2.003-2.7,1.685-6.275,5.344
		 M536.509,111.341c0,0-3.067,11.745-3.201,18.019c-0.135,6.275,2.401,17.22,3.334,20.291c0.936,3.071,0.267,10.278,0.267,10.278
		 M544.173,31.045c0,0,2.196-1.746,4-0.17c1.806,1.579-1.296,8.003-1.746,9.749c-0.453,1.75-1.448,4.85-2.426,5.864
		c-1.495,1.551-2.412,0.111-2.412,0.111"/>
	<path clip-path="url(#SVGID_28_)" fill="none" stroke="#496999" d="M623.793,130.431c0,6.587-5.338,11.926-11.926,11.926
		c-6.586,0-11.924-5.338-11.924-11.926c0-6.584,5.338-11.926,11.924-11.926C618.454,118.505,623.793,123.847,623.793,130.431z
		 M582.333,130.396h17.888 M526.242,75.225c0,0-16.263,27.644-17.347,41.196c-1.084,13.552,2.168,54.208,4.337,68.303
		c2.168,14.093,2.711,67.76,33.61,67.76c30.896,0,40.654-20.057,40.654-35.777s-8.806-27.997-12.337-44.452
		c-1.6-7.455,2.131-17.951,4.748-29.271c3.16-13.66,3.65-28.266,2.168-36.863c-2.71-15.718-8.671-32.524-11.924-37.943
		c-3.252-5.421-4.337-8.131-4.337-8.131"/>
</g>
<polygon fill="#2B2E56" points="484.916,215.465 484.888,215.465 483.304,216.323 483.063,215.383 485.057,214.313 486.111,214.313 
	486.111,223.444 484.916,223.444 "/>
<g>
	<defs>
		<rect id="SVGID_29_" x="-183" y="-965.888" width="1045.679" height="1478.888"/>
	</defs>
	<clipPath id="SVGID_30_">
		<use xlink:href="#SVGID_29_"  overflow="visible"/>
	</clipPath>
	<path clip-path="url(#SVGID_30_)" fill="#2B2E56" d="M494.892,215.352h-3.482l-0.351,2.347c0.209-0.028,0.406-0.04,0.745-0.04
		c0.717,0,1.404,0.139,1.966,0.49c0.718,0.393,1.307,1.194,1.307,2.333c0,1.781-1.419,3.114-3.399,3.114
		c-0.998,0-1.825-0.281-2.277-0.559l0.311-0.943c0.378,0.227,1.122,0.508,1.966,0.508c1.152,0,2.161-0.759,2.148-1.98
		c0-1.18-0.801-2.01-2.612-2.01c-0.534,0-0.94,0.04-1.279,0.084l0.59-4.385h4.367V215.352z"/>
	<path clip-path="url(#SVGID_30_)" fill="none" stroke="#496999" d="M628.444,225.206c0,6.587-5.342,11.926-11.926,11.926
		c-6.586,0-11.926-5.338-11.926-11.926c0-6.584,5.34-11.926,11.926-11.926C623.102,213.28,628.444,218.622,628.444,225.206z
		 M586.861,225.206h17.889"/>
</g>
<polygon fill="#2B2E56" points="607.786,126.895 607.758,126.895 606.172,127.752 605.933,126.814 607.927,125.746 608.981,125.746 
	608.981,134.875 607.786,134.875 "/>
<g>
	<defs>
		<rect id="SVGID_31_" x="-183" y="-965.888" width="1045.679" height="1478.888"/>
	</defs>
	<clipPath id="SVGID_32_">
		<use xlink:href="#SVGID_31_"  overflow="visible"/>
	</clipPath>
	<path clip-path="url(#SVGID_32_)" fill="#2B2E56" d="M617.174,131.885c0-1.309-0.745-2.094-1.885-2.094
		c-0.743,0-1.444,0.45-1.783,1.121c-0.068,0.141-0.123,0.309-0.123,0.536c0.012,1.502,0.713,2.624,2.02,2.624
		C616.457,134.072,617.174,133.186,617.174,131.885 M617.523,126.617c-0.251-0.018-0.576,0.014-0.926,0.07
		c-1.953,0.307-2.965,1.711-3.174,3.23h0.028c0.436-0.59,1.207-1.07,2.219-1.07c1.616,0,2.753,1.179,2.753,2.949
		c0,1.685-1.137,3.234-3.048,3.234c-1.938,0-3.218-1.518-3.218-3.893c0-1.797,0.636-3.218,1.548-4.118
		c0.759-0.743,1.771-1.207,2.919-1.347c0.367-0.054,0.676-0.067,0.899-0.067V126.617z"/>
	<path clip-path="url(#SVGID_32_)" fill="none" stroke="#496999" d="M501.219,218.927c0,6.587-5.342,11.926-11.926,11.926
		c-6.587,0-11.926-5.338-11.926-11.926c0-6.584,5.338-11.926,11.926-11.926C495.877,207.001,501.219,212.343,501.219,218.927z
		 M500.767,218.934h17.889"/>
</g>
<polygon fill="#2B2E56" points="475.926,145.602 475.898,145.602 474.313,146.459 474.072,145.519 476.066,144.453 477.12,144.453 
	477.12,153.582 475.926,153.582 "/>
<g>
	<defs>
		<rect id="SVGID_33_" x="-183" y="-965.888" width="1045.679" height="1478.888"/>
	</defs>
	<clipPath id="SVGID_34_">
		<use xlink:href="#SVGID_33_"  overflow="visible"/>
	</clipPath>
	<path clip-path="url(#SVGID_34_)" fill="#2B2E56" d="M484.273,150.128v-3.051c0-0.478,0.014-0.954,0.04-1.432h-0.04
		c-0.281,0.532-0.504,0.929-0.759,1.349l-2.233,3.102v0.032H484.273z M484.273,153.582v-2.5h-4.24v-0.801l4.072-5.828h1.335v5.676
		h1.277v0.954h-1.277v2.5H484.273z"/>
	<path clip-path="url(#SVGID_34_)" fill="none" stroke="#496999" d="M492.003,149.214c0,6.584-5.338,11.926-11.926,11.926
		c-6.584,0-11.926-5.342-11.926-11.926c0-6.587,5.342-11.926,11.926-11.926C486.665,137.289,492.003,142.627,492.003,149.214z
		 M491.705,149.218h17.889"/>
</g>
<polygon fill="#2B2E56" points="745.103,145.888 745.075,145.888 743.487,146.747 743.25,145.802 745.244,144.736 746.298,144.736 
	746.298,153.865 745.103,153.865 "/>
<g>
	<defs>
		<rect id="SVGID_35_" x="-122" y="-851.888" width="922.649" height="1304.888"/>
	</defs>
	<clipPath id="SVGID_36_">
		<use xlink:href="#SVGID_35_"  overflow="visible"/>
	</clipPath>
	<path clip-path="url(#SVGID_36_)" fill="#2B2E56" d="M748.287,152.112c0.319,0.191,1.05,0.512,1.841,0.512
		c1.436,0,1.896-0.91,1.883-1.613c-0.013-1.167-1.063-1.665-2.152-1.665h-0.625v-0.847h0.625c0.82,0,1.859-0.423,1.859-1.408
		c0-0.666-0.423-1.254-1.462-1.254c-0.663,0-1.304,0.295-1.664,0.551l-0.306-0.82c0.447-0.319,1.292-0.641,2.189-0.641
		c1.64,0,2.381,0.974,2.381,1.986c0,0.87-0.524,1.598-1.537,1.97v0.026c1.026,0.195,1.846,0.961,1.859,2.127
		c0,1.332-1.052,2.496-3.034,2.496c-0.935,0-1.755-0.295-2.163-0.564L748.287,152.112z"/>
</g>
<path fill="none" stroke="#496999" d="M552.578,248.598l-7.78,7.782 M544.798,248.598l7.78,7.782 M517.665,185.568l-7.78,7.782
	 M509.885,185.568l7.78,7.782 M529.554,71.872l-7.782,7.784 M521.772,71.872l7.782,7.784 M570.046,56.795l-7.782,7.782
	 M562.264,56.795l7.782,7.782 M578.84,166.77l-7.782,7.782 M571.058,166.77l7.782,7.782"/>
<polygon fill="#2B2E56" points="612.141,221.831 612.113,221.831 610.525,222.689 610.288,221.749 612.282,220.683 613.336,220.683 
	613.336,229.812 612.141,229.812 "/>
<polygon fill="#2B2E56" points="622.595,220.682 622.595,221.495 618.618,229.811 617.34,229.811 621.303,221.736 621.303,221.708 
	616.835,221.708 616.835,220.682 "/>
</svg>
