<?xml version="1.0" encoding="utf-8"?>
<!-- Generator: Adobe Illustrator 17.0.0, SVG Export Plug-In . SVG Version: 6.00 Build 0)  -->
<!DOCTYPE svg PUBLIC "-//W3C//DTD SVG 1.1//EN" "http://www.w3.org/Graphics/SVG/1.1/DTD/svg11.dtd">
<svg version="1.1" id="Слой_1" xmlns="http://www.w3.org/2000/svg" xmlns:xlink="http://www.w3.org/1999/xlink" x="0px" y="0px"
	 width="381px" height="348.89px" viewBox="0 0 381 348.89" enable-background="new 0 0 381 348.89" xml:space="preserve">
<g>
	<defs>
		<rect id="SVGID_1_" x="-43" y="-3" width="478.867" height="347.755"/>
	</defs>
	<clipPath id="SVGID_2_">
		<use xlink:href="#SVGID_1_"  overflow="visible"/>
	</clipPath>
	<path clip-path="url(#SVGID_2_)" fill="#E2E2E2" d="M256.872,81.046c0,0,1.352,15.372,1.183,25.17
		c-0.169,9.797-2.873,27.365-3.042,32.264c-0.168,4.898-1.519,11.15-3.545,14.696c-2.027,3.548-6.815,10.492-6.815,10.492
		s11.071-8.289,15.631-13.864c4.561-5.574,8.567-11.66,17.275-19.017c8.68-7.334,14.63-8.122,20.049-9.179
		c5.054-0.986,14.813-0.928,20.726,2.957c5.911,3.886,10.513,14.949,10.513,14.949s-5.272-21.851-6.611-31.031
		c-1.812-12.436-0.257-27.464,2.334-37.569c2.131-8.316,2.395-9.976,6.128-18.686c1.477-3.445,2.963-5.863,3.44-8.404
		c0.592-3.155-2.196-13.578-10.255-19.129c-7.556-5.203-18.188-6.506-26.077-5.719c-7.887,0.788-19.175,4.467-24.255,8.874
		c-4.966,4.306-9.492,9.778-11.483,15.833c-0.823,2.501-2.064,6.965-1.992,10.369c0.053,2.399,0.094,7.521-0.892,14.226
		C258.199,74.982,256.872,81.046,256.872,81.046"/>
	<path clip-path="url(#SVGID_2_)" fill="none" stroke="#000000" stroke-width="1.433" d="M256.872,81.046
		c0,0,1.352,15.372,1.183,25.17c-0.169,9.797-2.873,27.365-3.042,32.264c-0.168,4.898-1.519,11.15-3.545,14.696
		c-2.027,3.548-6.815,10.492-6.815,10.492s11.071-8.289,15.631-13.864c4.561-5.574,8.567-11.66,17.275-19.017
		c8.68-7.334,14.63-8.122,20.049-9.179c5.054-0.986,14.813-0.928,20.726,2.957c5.911,3.886,10.513,14.949,10.513,14.949
		s-5.272-21.851-6.611-31.031c-1.812-12.436-0.257-27.464,2.334-37.569c2.131-8.316,2.395-9.976,6.128-18.686
		c1.477-3.445,2.963-5.863,3.44-8.404c0.592-3.155-2.196-13.578-10.255-19.129c-7.556-5.203-18.188-6.506-26.077-5.719
		c-7.887,0.788-19.175,4.467-24.255,8.874c-4.966,4.306-9.492,9.778-11.483,15.833c-0.823,2.501-2.064,6.965-1.992,10.369
		c0.053,2.399,0.094,7.521-0.892,14.226C258.199,74.982,256.872,81.046,256.872,81.046z"/>
	<path clip-path="url(#SVGID_2_)" d="M193.513,319.885c0,0-2.427,8.991,3.998,12.355c3.119,1.63,5.037,2.845,7.753,0.885
		c3.69-2.662,3.332-5.941,3.89-6.042c0.558-0.1-4.841,2.532-8.691,0.662C194.65,324.919,193.513,319.885,193.513,319.885"/>
	<path clip-path="url(#SVGID_2_)" fill="none" stroke="#D6577D" stroke-width="1.433" d="M293.736,13.144
		c1.288,1.274,1.623,4.024,1.444,5.776"/>
	<path clip-path="url(#SVGID_2_)" fill="none" stroke="#000000" stroke-width="1.433" stroke-linejoin="round" d="M215.339,311.761
		c0,0,9.541-5.725,20.355-7.845"/>
	<path clip-path="url(#SVGID_2_)" fill="none" stroke="#000000" stroke-width="1.433" stroke-linejoin="round" d="M291.882,327.45
		c0,0,3.605,3.393,17.81,2.969c14.206-0.424,17.176-4.453,17.176-4.453"/>
	
		<path clip-path="url(#SVGID_2_)" fill="none" stroke="#000000" stroke-width="1.433" stroke-linecap="round" stroke-linejoin="round" d="
		M286.208,176.74c0,0,5.839-4.205,10.156-8.841c5.213-5.6,9.461-13.867,9.461-25.486s-1.078-15.092-2.71-21.207"/>
	<path clip-path="url(#SVGID_2_)" fill="none" stroke="#000000" stroke-width="1.433" stroke-linejoin="round" d="M240.29,169.786
		l5.367-7.306c0,0,6.562-4.474,9.695-7.456c3.132-2.983,12.823-15.658,18.191-20.43c5.368-4.772,10.886-9.692,17.447-11.482
		c6.561-1.789,19.982-3.877,26.095,1.045c6.114,4.92,9.544,9.693,10.886,13.123c1.342,3.428,2.982,11.779,2.683,18.639
		c-0.297,6.859-1.49,15.209-1.49,15.209s-5.07,6.264-18.64,8.947c-13.569,2.684-24.158-0.596-24.158-0.596l-0.148-2.833
		l-4.323,3.429c0,0-13.124,2.684-22.964,0C249.089,177.391,244.912,176.049,240.29,169.786z"/>
	<path clip-path="url(#SVGID_2_)" fill="#E2E2E2" d="M275.173,11.38c0,0,1.016-1.44,1.167-3.677c0.239-3.575-0.3-3.729-0.3-3.729
		s5.043,0.898,16.851,0.02c9.221-0.687,11.913-2.108,11.913-2.108s-0.687,1.614-0.687,4.542c0,2.573,0.878,4.304,0.878,4.304
		s-5.813,2.735-14.241,2.413C281.395,12.787,281.966,12.787,275.173,11.38"/>
	<path clip-path="url(#SVGID_2_)" fill="none" stroke="#000000" stroke-width="1.433" stroke-linejoin="round" d="M275.173,11.38
		c0,0,1.016-1.44,1.167-3.677c0.239-3.575-0.3-3.729-0.3-3.729s5.043,0.898,16.851,0.02c9.221-0.687,11.913-2.108,11.913-2.108
		s-0.687,1.614-0.687,4.542c0,2.573,0.878,4.304,0.878,4.304s-5.813,2.735-14.241,2.413
		C281.395,12.787,281.966,12.787,275.173,11.38z"/>
	<path clip-path="url(#SVGID_2_)" fill="#E2E2E2" d="M117.107,13.385c0,0,0.299,2.241-3.286,4.78
		c-1.999,1.417-7.169,2.372-12.552,1.988c-11.45-0.818-21.111-9.605-21.111-9.605c5.675-3.435,4.598-6.774,4.598-6.774
		s6.072,4.831,16.933,6.279c4.381,0.584,10.962-0.427,13.021-1.753c1.896-1.219,2.074-2.114,2.074-2.114
		S116.36,9.352,117.107,13.385"/>
	<path clip-path="url(#SVGID_2_)" fill="none" stroke="#000000" stroke-width="1.433" stroke-linejoin="round" d="M117.107,13.385
		c0,0,0.299,2.241-3.286,4.78c-1.999,1.417-7.169,2.372-12.552,1.988c-11.45-0.818-21.111-9.605-21.111-9.605
		c5.675-3.435,4.598-6.774,4.598-6.774s6.072,4.831,16.933,6.279c4.381,0.584,10.962-0.427,13.021-1.753
		c1.896-1.219,2.074-2.114,2.074-2.114S116.36,9.352,117.107,13.385z"/>
	<path clip-path="url(#SVGID_2_)" fill="none" stroke="#000000" stroke-width="1.433" stroke-linejoin="round" d="M204.829,203.162
		c0,0,8.872-15.969,19.961-29.053c11.089-13.084,14.526-17.742,18.298-21.512c3.769-3.77,6.874-7.763,7.54-10.202
		c0.665-2.44,1.775-9.536,2.217-14.86c0.443-5.322,0.443-7.097,1.11-14.637c0.664-7.539,0.718-16.92,0.718-16.92l2.199-14.932
		c0,0,1.297,16.55,1.297,21.651c0,5.1-1.775,23.508-2.219,27.5c-0.443,3.992-1.287,14.062-2.218,17.521
		c-1.552,5.766-6.765,13.75-13.419,22.177c-6.653,8.429-15.523,19.295-18.629,23.509c-3.105,4.215-13.163,17.47-13.163,17.47
		S206.08,206.85,204.829,203.162z"/>
	<path clip-path="url(#SVGID_2_)" fill="none" stroke="#000000" stroke-width="1.433" stroke-linejoin="round" d="M115.172,17.313
		c0,0,4.688,3.442,9.234,8.68c5.265,6.066,10.478,14.504,10.242,22.186c-0.39,12.567-4.412,42.937-4.752,50.78
		c-0.34,7.842,0.553,21.873,1.364,28.301c1.436,11.379,0.189,9.069,7.835,20.625c7.645,11.557,17.985,25.661,17.985,25.661
		c8.332,11.728,12.962,21.606,12.962,21.606s-2.775,0.925-13.269,4.629c-10.496,3.704-16.05,3.704-16.05,3.704
		s-4.939-5.864-7.41-8.333c-2.468-2.47-3.394-3.704-3.394-3.704c-9.75-9.855-19.808-14.817-25.364-17.904
		c-5.557-3.086-8.382-5.174-9.9-3.36c0,0-2.949,13.636-3.685,21.004c-0.738,7.37-1.106,23.214-1.106,23.214
		s-9.77,3.318-18.246,4.054c-8.474,0.737-20.636-3.317-20.636-3.317l0.088,0.134c-0.178-4.442,2.858-12.087,2.147-33.422
		c-0.711-21.334-0.535-29.334,0.355-39.291c0.889-9.957,8.932-41.07,8.397-55.471s-5.512-37.693-5.512-37.693
		s2.134-7.289,7.113-15.289c4.977-8.001,18.886-21.183,18.886-21.183s8.837,6.472,19.429,7.314
		C109.351,20.832,115.172,17.313,115.172,17.313z"/>
	<path clip-path="url(#SVGID_2_)" fill="none" stroke="#000000" stroke-width="1.433" stroke-linejoin="round" d="M218.967,318.307
		c0,0-7.157-13.719-8.799-18.49c-1.641-4.771-2.684-12.081-2.981-19.238c-0.299-7.156-0.896-30.27-0.896-30.27l6.115-44.883
		l27.884-35.64c0,0,4.921,7.754,15.359,9.693c10.439,1.939,16.851,1.64,19.534,1.492c2.685-0.15,6.712-0.896,6.712-0.896
		s-14.465,13.421-21.623,20.728c-7.159,7.306-16.999,18.192-19.085,20.578c-2.09,2.385-4.625,5.665-5.073,7.158
		c-0.447,1.492-1.789,16.254-2.087,28.78c-0.298,12.524-0.894,27.14-0.298,33.7c0.596,6.561,4.175,20.727,4.175,20.727
		s-5.367,1.64-9.693,3.131C223.887,316.369,218.967,318.307,218.967,318.307z"/>
	<path clip-path="url(#SVGID_2_)" fill="none" stroke="#000000" stroke-width="1.433" stroke-linejoin="round" d="M291.735,335.604
		c0,0,1.044-8.649-0.149-28.779c-1.192-20.131-1.192-23.858-1.939-31.016c-0.745-7.158-2.534-63.226-2.534-63.226
		s1.341-11.929,1.341-16.253s-2.087-16.852-2.087-16.852s12.525,2.387,19.087,1.344c6.562-1.044,13.869-2.982,17.298-4.772
		c3.429-1.791,6.412-4.922,6.412-4.922s-4.623,38.624-5.667,49.807c-1.045,11.183,0.745,23.56,0.745,23.56l1.492,26.243
		c0,0,0.745,15.807,0.596,20.877c-0.149,5.069,0.299,20.578,0.448,24.306c0.149,3.728,0.149,15.061,0.149,16.104
		c0,1.045,0.447,2.684-1.344,3.579c-1.788,0.896-10.288,2.686-16.103,2.984S293.077,338.29,291.735,335.604z"/>
	<path clip-path="url(#SVGID_2_)" fill="none" stroke="#000000" stroke-width="1.433" stroke-linejoin="round" d="M94.837,170.01
		c0.729-1.133,4.291,0.487,6.964,2.025c3.622,2.085,11.993,6.29,14.684,8.341c3.401,2.59,11.337,9.232,13.434,11.071l-8.334,5.864
		c0,0-7.771-7.099-13.018-12.964c-5.247-5.864-13.889-12.655-13.889-12.655s-0.489-0.628-0.022-1.508"/>
	<path clip-path="url(#SVGID_2_)" fill="none" stroke="#000000" stroke-width="1.433" d="M142.489,308.045
		c4.059-9.609,5.783-10.627,6.703-20.109c2.062-21.267,2.916-36.756,2.916-36.756s-6.643,6.93-9.757,4.163
		c0,0-0.168,22.007-1.898,27.886c-1.727,5.878-6.885,12.193-7.577,14.612c-0.691,2.421,2.177,7.49,4.571,15.796
		c0.926,3.211,3.39,9.968,3.39,9.968S138.621,317.197,142.489,308.045z"/>
	<path clip-path="url(#SVGID_2_)" fill="none" stroke="#000000" stroke-width="1.433" stroke-linejoin="round" d="M208.521,210.875
		c-5.76,8.524-3.347,9.921-3.214,17.711c0.152,9.011,1.068,32.07,1.68,44.593c0.61,12.523,1.068,16.187,1.833,22.295
		c0.763,6.109,10.243,22.985,10.243,22.985s-2.607,1.144-6.12,4.047c-3.513,2.9-0.737,0.415-4.901,5.175
		c-4.165,4.76-2.679,2.976-7.737,0.298c-5.057-2.677-6.545-6.843-6.545-6.843s0.893-7.735,1.785-12.496
		c0.894-4.76,2.976-21.719,3.868-45.521s0.51-26.49,1.191-43.14c0.233-5.728,1.342-11.049,2.23-13.49
		c0.886-2.439,1.995-3.326,1.995-3.326C206.381,208.041,208.521,210.875,208.521,210.875z"/>
	<path clip-path="url(#SVGID_2_)" fill="none" stroke="#000000" stroke-width="1.433" d="M170.043,195.152
		c3.157,5.895,12.147,16.267,11.109,35.973c-1.037,19.71-3.456,55.665-4.493,68.459c-1.038,12.791-0.347,36.302-1.038,38.032
		c-0.693,1.729-1.796,2.495-7.433,2.385c-6.603-0.131-10.694-0.997-16.16-3.341c-5.415-2.321-10.382-8.411-11.859-15.339
		c-1.477-6.927,2.4-13.26,4.565-18.557c2.328-5.703,3.841-7.351,4.636-17.179c0.637-7.893,2.271-19.536,2.498-25.783
		c0.227-6.246,0.241-8.623,0.241-8.623s1.464-22.497-2.285-31.129c-3.749-8.631-8.405-14.651-8.858-15.218
		c-0.455-0.57-0.909-1.704-0.909-1.704s7.154,0.34,17.945-3.748C168.791,195.291,170.043,195.152,170.043,195.152z"/>
	<path clip-path="url(#SVGID_2_)" fill="none" stroke="#000000" stroke-width="1.433" d="M50.983,215.139
		c0,0,4.054,28.004,0.001,47.534s-2.948,35.375-1.843,37.217c1.106,1.842-3.685,12.528-2.58,17.687
		c1.106,5.159,0.37,12.16,5.528,14.002c5.159,1.843,16.777,5.526,29.674,1.473c12.896-4.052,4.053-12.896,4.053-15.475
		c0-2.579,1.105-9.213,0.737-16.583c-0.368-7.368-1.106-28.003,1.473-37.215c2.58-9.212,4.417-28.005,4.05-36.848
		c-0.369-8.844-2.211-12.528-2.211-12.528S71.248,223.616,50.983,215.139z"/>
	<path clip-path="url(#SVGID_2_)" d="M144.827,331.246c0,0,4.127,11.297,15.18,12.402c11.056,1.106,13.729-1.697,14.593-2.763
		c1.044-1.288,1.625-4.619,1.625-4.619s0.088,3.078-6.655,3.519c-7.618,0.501-11.057-0.536-15.037-2.415
		C150.554,335.489,144.827,331.246,144.827,331.246"/>
	<path clip-path="url(#SVGID_2_)" d="M48.312,328.715c0,0,3.857,11.212,17.503,11.212c15.029,0,21.747-6.273,22.422-7.814
		c0.675-1.542,0.968-5.197,0.968-5.197s-9.325,8.45-23.389,7.894C56.086,334.425,48.312,328.715,48.312,328.715"/>
	<path clip-path="url(#SVGID_2_)" fill="#E2E2E2" d="M231.33,94.018c0,0-2.183,14.656-2.183,24.947s-0.935,20.271-1.559,26.507
		c-0.624,6.238-0.624,9.667-0.624,9.667l12.474-3.117c0,0-1.56-2.807,2.495-14.657c4.053-11.85,5.613-17.464,8.42-24.636
		c2.805-7.173,4.32-16.751,4.32-16.751s-6.775,3.786-14.427,1.688C232.623,95.578,234.106,95.3,231.33,94.018"/>
	<path clip-path="url(#SVGID_2_)" fill="none" stroke="#000000" stroke-width="1.433" d="M231.33,94.018
		c0,0-2.183,14.656-2.183,24.947s-0.935,20.271-1.559,26.507c-0.624,6.238-0.624,9.667-0.624,9.667l12.474-3.117
		c0,0-1.56-2.807,2.495-14.657c4.053-11.85,5.613-17.464,8.42-24.636c2.805-7.173,4.32-16.751,4.32-16.751
		s-6.775,3.786-14.427,1.688C232.623,95.578,234.106,95.3,231.33,94.018z"/>
	<path clip-path="url(#SVGID_2_)" fill="#E2E2E2" d="M354.57,76.191c0,0,3.762,4.357,8.384,6.052
		c7.236,2.656,11.84-0.526,11.84-0.526s-14.406,18.521-20.323,23.667c-5.916,5.145-13.891,12.348-15.436,13.635
		c-1.543,1.286-5.402,3.858-5.402,3.858l-4.888-10.804c0,0,6.689-5.917,12.091-13.378C346.239,91.235,354.056,78.508,354.57,76.191"
		/>
	<path clip-path="url(#SVGID_2_)" fill="none" stroke="#000000" stroke-width="1.433" d="M354.57,76.191
		c0,0,3.762,4.357,8.384,6.052c7.236,2.656,11.84-0.526,11.84-0.526s-14.406,18.521-20.323,23.667
		c-5.916,5.145-13.891,12.348-15.436,13.635c-1.543,1.286-5.402,3.858-5.402,3.858l-4.888-10.804c0,0,6.689-5.917,12.091-13.378
		C346.239,91.235,354.056,78.508,354.57,76.191z"/>
	<path clip-path="url(#SVGID_2_)" fill="#E2E2E2" d="M26.667,72.906c0,0,5.526,10.317,11.053,21.004
		c5.527,10.686,10.687,14.371,14.003,16.582c0.829,0.552,1.227,0.985,1.227,0.985l-8.3,10.546c0,0-0.394-0.249-0.754-0.608
		c-1.841-1.843-14.094-13.826-22.108-23.118c-9.197-10.66-6.176-5.493-14.651-16.916c-8.474-11.422-2.827-12.32-0.369-18.793
		c1.169-3.077,2.408-4.197,3.485-4.174c1.227,0.027,5.854,0.122,10.975,4.267C24.578,65.394,28.933,71.791,26.667,72.906"/>
	<path clip-path="url(#SVGID_2_)" fill="none" stroke="#000000" stroke-width="1.433" stroke-linejoin="round" d="M26.667,72.906
		c0,0,5.526,10.317,11.053,21.004c5.527,10.686,10.687,14.371,14.003,16.582c0.829,0.552,1.227,0.985,1.227,0.985l-8.3,10.546
		c0,0-0.394-0.249-0.754-0.608c-1.841-1.843-14.094-13.826-22.108-23.118c-9.197-10.66-6.176-5.493-14.651-16.916
		c-8.474-11.422-2.827-12.32-0.369-18.793c1.169-3.077,2.408-4.197,3.485-4.174c1.227,0.027,5.854,0.122,10.975,4.267
		C24.578,65.394,28.933,71.791,26.667,72.906z"/>
	<path clip-path="url(#SVGID_2_)" fill="#E2E2E2" d="M131.34,88.56c0,0,5.243,2.424,12.816,0.706c4.674-1.06,7.3-2.93,7.3-2.93
		c1.943,11.949,1.697,13.004,2.593,24.402c0.61,7.729,0.811,11.566,1.55,18.212c0.74,6.644,3.323,24.362,3.323,24.362l-10.89,1.108
		c0,0-0.185-2.769-2.584-11.628c-2.4-8.86-3.661-13.492-6.8-20.875c-3.135-7.384-7.642-22.035-7.642-25.542
		C131.005,92.868,130.784,90.959,131.34,88.56"/>
	<path clip-path="url(#SVGID_2_)" fill="none" stroke="#000000" stroke-width="1.433" stroke-linejoin="round" d="M131.34,88.56
		c0,0,5.243,2.424,12.816,0.706c4.674-1.06,7.3-2.93,7.3-2.93c1.943,11.949,1.697,13.004,2.593,24.402
		c0.61,7.729,0.811,11.566,1.55,18.212c0.74,6.644,3.323,24.362,3.323,24.362l-10.89,1.108c0,0-0.185-2.769-2.584-11.628
		c-2.4-8.86-3.661-13.492-6.8-20.875c-3.135-7.384-7.642-22.035-7.642-25.542C131.005,92.868,130.784,90.959,131.34,88.56z"/>
	<path clip-path="url(#SVGID_2_)" fill="none" stroke="#000000" stroke-width="1.433" d="M231.348,93.296
		c0,0,4.581,4.424,10.744,4.74c6.162,0.316,12.324-1.896,12.324-1.896s2.37-12.482,3.161-17.222c0.79-4.74,2.505-19.079,2.482-20.51
		c-0.044-2.645,0.36-7.93,0.36-7.93S262,39.26,268.636,32.781c6.636-6.478,9.007-8.058,13.272-9.638
		c4.265-1.58,13.114-3.95,13.114-3.95s0.158-2.212,0-3.634c-0.158-1.422-0.474-2.211-0.474-2.211s-6.162-0.317-9.638-0.475
		c-3.476-0.159-9.48-1.422-9.48-1.422s-7.426,3.318-12.167,5.214c-4.739,1.896-13.27,5.373-16.589,8.374
		c-3.317,3.001-5.371,6.004-6.161,11.534C239.722,42.104,231.348,93.296,231.348,93.296z"/>
	<path clip-path="url(#SVGID_2_)" fill="none" stroke="#000000" stroke-width="1.433" d="M294.548,13.347
		c0,0,4.581-0.632,6.004-1.106c1.422-0.474,4.108-1.58,4.108-1.58s11.534,3.793,15.801,5.53c4.266,1.738,10.902,5.215,13.588,6.952
		c2.686,1.738,6.952,5.214,6.952,5.214l33.023,39.501c0,0,1.58,2.844,2.054,3.633c0.473,0.791,1.263,2.529,0.947,3.951
		c-0.396,1.779-0.651,1.766-2.421,6.485c0,0-5.952,2.363-8.955,1.257c-3.002-1.106-7.899-3.476-9.006-4.74
		c-1.107-1.264-2.055-2.37-2.055-2.37s-9.953-9.638-13.744-12.957c-3.793-3.318-10.745-9.005-10.745-9.005s4.582-9.48,4.266-11.218
		c-0.316-1.738-1.265-9.323-7.11-15.011c-5.847-5.687-12.484-7.899-18.486-8.531c-6.005-0.633-10.586-0.474-11.534-0.316
		c-0.95,0.158-2.213,0.157-2.213,0.157S295.338,14.927,294.548,13.347z"/>
	
		<path clip-path="url(#SVGID_2_)" fill="none" stroke="#000000" stroke-width="1.433" stroke-linecap="round" stroke-linejoin="round" d="
		M81.516,13.773c0.654-0.632,1.036-0.689,0.719-1.007c-1.763-1.761-2.18-2.241-2.18-2.241c-22.708,1.805-25.669,5.659-29.431,9.266
		c-5.672,5.434-5.529,5.534-41.448,38.77c0,0,7.547-0.354,11.937,4.158c4.39,4.511,5.853,7.071,5.975,7.925
		c0.122,0.853-0.443,2.221-0.443,2.221s5.685-3.562,17.27-11.854c11.584-8.291,12.583-11.796,12.583-11.796
		s1.952-7.013,5.679-12.796c5.608-8.699,7.26-10.567,14.593-17.901C78.498,16.793,80.512,14.745,81.516,13.773z"/>
	<path clip-path="url(#SVGID_2_)" fill="none" stroke="#000000" stroke-width="1.433" stroke-linejoin="round" d="M129.426,17.737
		c5.32,2.04,14.272,4.315,17.102,11.991c1.609,4.361,1.626,12.254,2.325,22.123c0.837,11.805,0.699,14.469,1.301,22.123
		c0.651,8.273,1.301,12.362,1.301,12.362s-5.972,2.955-9.882,3.484c-5.176,0.699-10.381-1.16-10.381-1.16s0.208-8.187,1.87-20.554
		c2.611-19.437,1.879-22.397,0.002-27.503c-3.03-8.235-8.3-14.484-12.096-18.125c-4.555-4.369-5.95-5.299-5.95-5.299
		s0.371-0.372,1.209-1.487c0.837-1.115,0.837-2.882,0.837-2.882S122.883,15.228,129.426,17.737z"/>
	<path clip-path="url(#SVGID_2_)" fill="none" stroke="#000000" stroke-width="3.82" d="M104.586,10.399
		c0,0-0.556,55.161-2.819,83.446c-1.365,17.049-4.434,37.507-3.41,46.714c1.022,9.206-0.573,20.81-0.573,20.81"/>
	<path clip-path="url(#SVGID_2_)" fill="none" stroke="#000000" stroke-width="1.433" d="M135.801,292.492
		c0,0,3.732,12.13,6.253,15.863"/>
	<polyline clip-path="url(#SVGID_2_)" fill="none" stroke="#000000" stroke-width="0.955" points="153.346,213.106 159.14,211.825 
		155.455,215.454 	"/>
	<polyline clip-path="url(#SVGID_2_)" fill="none" stroke="#000000" stroke-width="0.955" points="158.14,229.387 163.767,232.075 
		158.469,233.437 	"/>
	<polyline clip-path="url(#SVGID_2_)" fill="none" stroke="#000000" stroke-width="0.955" points="86.032,228.636 81.077,230.762 
		86.111,232.678 	"/>
	<polyline clip-path="url(#SVGID_2_)" fill="none" stroke="#000000" stroke-width="0.955" points="84.536,243.917 79.581,246.043 
		84.615,247.96 	"/>
	<polyline clip-path="url(#SVGID_2_)" fill="none" stroke="#000000" stroke-width="0.955" points="55.587,228.939 60.471,231.22 
		55.379,232.976 	"/>
	<polyline clip-path="url(#SVGID_2_)" fill="none" stroke="#000000" stroke-width="0.955" points="56.596,244.26 61.48,246.544 
		56.389,248.299 	"/>
	<path clip-path="url(#SVGID_2_)" d="M290.695,246.906c-0.053-2.921-0.323-6.362-0.34-9.073c0.435-9.213,0.904-16.145,0.34-20.368
		c-0.457-3.425-0.746-4.122-1.478-4.852c-1.032-0.477-0.684-0.507-2.458-0.626c-2.885-0.193-5.508,2.283-5.493,15.658
		c0.016,14.981,1.315,37.837,2.241,43.225c0.791,4.593,1.992,5.802,5.158,6.188c0.701,0.616,0.944,0.101,2.108-0.555
		c1.485-0.834,1.677-1.044,1.711-2.91C293.291,267.714,290.887,257.293,290.695,246.906"/>
	<path clip-path="url(#SVGID_2_)" d="M335.888,176.082c-2.524-5.433-5.755-5.253-7.2-4.53c-0.586,0.293-0.371,0.933-0.17,1.319
		c-0.217,0.472-0.322,0.873-0.322,0.873c-0.877,2.336,0.927,8.745-2.577,19.546c-3.502,10.805-5.254,35.329-5.254,41.752
		s5.102,34.897,5.182,39.517c0.018,1.143,0.238,1.614,0.57,1.621c1.355,0.853,5.174-0.647,5.821-5.822
		c0.495-3.939-2.389-28.893-2.389-35.608c0-6.715,0.479-17.45,3.106-31.173C335.282,189.854,338.48,181.669,335.888,176.082"/>
	<path clip-path="url(#SVGID_2_)" d="M255.942,180.456c-0.223-0.448-0.259-0.516-0.454-0.738c-2.74-3.162-9.249-1.203-17.524,5.437
		c-14.532,11.66-26.046,19.919-31.562,25.433c-5.468,5.469-6.877,11.224-4.425,25.626c2.662,15.643,5.039,21.869,8.409,21.562
		c1.085-0.097,1.844-0.227,2.306-0.645c2.327-0.421,3.209-3.395,3.209-5.789c0-2.452-3.393-14.17-3.892-21.911
		c-0.486-7.544,1.293-8.857,3.745-10.694c2.451-1.839,9.387-7.572,14.548-11.214c6.117-4.311,16.406-12.834,20.292-15.29
		C259.499,186.6,256.634,181.826,255.942,180.456"/>
	<path clip-path="url(#SVGID_2_)" d="M52.364,162.105c0,0-6.418,3.962-6.56,13.972c-0.212,14.817-2.331,20.533-1.907,40.643
		c0.419,19.925-1.021,38.952,1.191,42.268c2.21,3.317,5.159,4.791,5.159,4.791s5.158-12.161,2.577-32.428
		c-2.577-20.265,0.389-26.485,0.599-36.647C53.612,185.674,53.101,169.474,52.364,162.105"/>
	<path clip-path="url(#SVGID_2_)" d="M121.586,197.311c-0.617,2.468,0.926,4.321,7.407,12.962
		c6.482,8.643,10.185,12.964,11.112,18.828c0.925,5.865,0.925,12.039,0.925,17.593c0,5.556-0.617,10.185,3.705,10.495
		c4.32,0.308,8.64-2.161,8.333-12.037c-0.308-9.877-0.4-21.813-4.412-28.912c-4.013-7.098-8.751-14.431-13.901-19.965
		c-4.334-4.658-4.97-5.139-8.231-2.977C123.741,195.143,121.586,197.311,121.586,197.311"/>
	<path clip-path="url(#SVGID_2_)" d="M90.54,192.434c0,0,3.471-4.515,3.818,9.721c0.347,14.234-2.084,54.854-2.777,57.631
		c-0.694,2.778-3.556,3.993-3.556,3.993c1.631-20.184,1.261-20.924,1.446-24.99c0.223-4.904,0.026-21.357-0.667-25.524
		C88.108,209.098,90.54,192.434,90.54,192.434"/>
	<path clip-path="url(#SVGID_2_)" fill="none" stroke="#000000" stroke-width="1.433" d="M242.848,29.572l11.268,3.005
		c0,0-4.47,24.335-6.154,33.256c-2.706,14.35-3.052,16.082-7.716,31.834c-0.084,0.283-3.925-0.428-5.819-1.781
		c-1.897-1.353-3.079-2.589-3.079-2.589s1.453-9.325,1.994-13.657c0.542-4.332,8.043-45.571,8.043-45.571
		S241.223,31.468,242.848,29.572z"/>
	<path clip-path="url(#SVGID_2_)" fill="none" stroke="#000000" stroke-width="1.433" d="M337.924,26.082l-2.687,4.241
		c0,0,10.146,13.498,18.659,23.014c0,0,14.303,17.438,15.207,18.896c2.005,3.227,6.043,8.57,6.043,8.57s1.224-1.703,1.925-6.411
		c0.515-3.466-1.07-3.05-3.048-6.534c-1.979-3.484-33.022-39.5-33.022-39.5L337.924,26.082z"/>
	<path clip-path="url(#SVGID_2_)" fill="none" stroke="#000000" stroke-width="1.433" stroke-linejoin="round" d="M151.455,86.336
		l-3.45,1.721c0,0-2.882-21.549-3.009-29.035c-0.172-10.188-1.555-28.452-1.555-28.452l2.965-1.147l0.006-0.003l0.04-0.016
		c0,0,1.586,5.073,1.872,7.066c0.285,1.994,2.277,20.647,2.136,24.206c-0.142,3.561,0.284,20.221,0.426,21.36
		C151.03,83.175,151.455,86.336,151.455,86.336z"/>
	<path clip-path="url(#SVGID_2_)" fill="none" stroke="#000000" stroke-width="1.433" stroke-linejoin="round" d="M54.015,16.953
		l3.305,1.763c0,0-17.627,17.626-22.474,22.474c-4.847,4.848-19.609,17.846-19.609,17.846l-4.983-0.623
		c0,0,12.033-14.139,18.203-18.985c6.169-4.847,22.167-19.638,22.167-19.638L54.015,16.953z"/>
	<path clip-path="url(#SVGID_2_)" d="M371.351,55.511c-3.558-4.128-13.482-17.726-20.089-24.938
		c-6.888-7.519-10.898-1.963-10.898-1.963c-0.101,0.315-0.17,0.589-0.226,0.847c-0.074,0.021,0,0,0,0
		c-0.815,2.908,2.468,5.351,4.835,8.09c3.37,3.904,5.189,7.168,14.465,17.302c10.683,11.67,16.174,23.043,17.534,21.879
		c0.638-0.546,1.403-0.702,2.107-3.231C379.967,70.637,377.61,62.772,371.351,55.511"/>
	<path clip-path="url(#SVGID_2_)" d="M248.344,36.461c0,0-0.233-0.444-0.97-0.856c-1.612-0.9-4.461-2.092-6.241-0.535
		c-2.593,2.269-4.538,14.911-7.13,25.607c-2.594,10.696-4.405,20.541-4.081,23.134c0.325,2.593-0.319,4.007,2.598,5.951
		c2.267,1.511,4.181,1.994,5.607,0.321c0.562-0.787,1.231-2.518,1.704-4.582c2.237-9.791,1.602-6.748,3.28-15.419
		c1.416-7.319,2.933-14.415,4.331-20.848C248.429,44.698,250.409,37.787,248.344,36.461"/>
	<path clip-path="url(#SVGID_2_)" d="M11.637,56.312c0,0-4.932-4.558-0.243-9.65c8.446-9.169,14.241-14.689,21.474-20.752
		c7.234-6.061,9.907-8.835,13.23-8.541c3.324,0.293,5.536,1.865,5.536,1.865S38.682,31.57,31.835,38.361
		C24.988,45.151,11.637,56.312,11.637,56.312"/>
	<path clip-path="url(#SVGID_2_)" d="M146.84,32.511c2.429-0.486,4.857-1.699,5.925,6.118c1.017,7.468,1.035,14.83,2.053,26.48
		c0.888,10.173,1.034,10.252,0.859,12.46c-0.291,3.69-1.455,4.952-5.05,5.827c0,0-0.15-1.202-0.873-8.45
		c-0.723-7.246-1.501-19.506-1.651-27.092S146.297,32.62,146.84,32.511"/>
</g>
</svg>
